<svg xmlns="http://www.w3.org/2000/svg" viewBox="0 0 250 250"><defs><style>.a{isolation:isolate;}.b{fill:#f7931a;}.c{fill:#fdc70c;}.d,.j{fill:#ffd4bc;}.e{fill:#171717;}.f{fill:#e5c70c;}.f,.i{mix-blend-mode:multiply;}.g,.h,.k{fill:#fff;}.g,.h,.j{mix-blend-mode:overlay;}.h{opacity:0.51;}.i{fill:#e2ab8b;opacity:0.54;}.k{mix-blend-mode:soft-light;}</style></defs><g class="a"><path d="M147.85,242.47a115.13,115.13,0,0,1-17.24-1.32c-3.28-.51-6.49-1.14-9.56-1.88l-1.71-.43c-.55-.14-1.12-.29-1.67-.45s-1.07-.3-1.61-.46c-1.65-.48-3.3-1-4.9-1.58a82.82,82.82,0,0,1-8.72-3.62l-.58-.29-.62-.31c-1.06-.55-2-1.06-2.86-1.58l-.9-.52c-.26-.15-.49-.3-.72-.45l-.28-.18-1-.65c-.27-.18-.59-.38-.91-.62l-1.94-1.41-1.93-1.52-.38-.33-.75-.66-.84-.73-.46-.44-.22-.21c-1-.89-1.82-1.79-2.65-2.67l-.2-.22L84,218.56c-.31-.35-.58-.69-.84-1l-.36-.45,0,0c-.9-1.13-1.74-2.27-2.52-3.41A18.23,18.23,0,0,1,77.89,216a10.59,10.59,0,0,1-.88.68l-.22.16a5.58,5.58,0,0,1-.61.4l-.24.15-.47.28-.12.07a15.43,15.43,0,0,1-2.81,1.18,16.39,16.39,0,0,1-6.31.68A22.93,22.93,0,0,1,60,218.12a38.32,38.32,0,0,1-10.7-6.59,58.8,58.8,0,0,1-4.64-4.37c-.38-.38-.72-.77-1.06-1.15l-.09-.1c-.35-.39-.65-.77-.92-1.12l-.21-.26a32.22,32.22,0,0,1-2-3,34.22,34.22,0,0,1-4.46-12.91,30.6,30.6,0,0,1,.92-12.86A22,22,0,0,1,39.55,170a17.45,17.45,0,0,1,4.35-4.54l.14-.11a5.7,5.7,0,0,1,.58-.39l.71-.43c.13-.08.3-.18.5-.28a25,25,0,0,1,1-2.41c-1-2-2-4.22-3-6.46C42.34,152.05,41.09,149,40,146l-.45-1.27c-.11-.3-.21-.6-.31-.9l-.13-.38c-.11-.35-.23-.69-.34-1l-.46-1.46c-.46-1.49-.91-3-1.37-4.75-.38-1.47-.75-3-1-4.47-.11-.57-.2-1.1-.28-1.61l-.08-.5-.09-.71c-.3-.18-.57-.37-.8-.53l-.21-.15-.18-.15c-.17-.13-.37-.29-.59-.49l-.39-.37-.28-.29a14.76,14.76,0,0,1-2.27-3.19,23.36,23.36,0,0,1-2.35-7.16,34.52,34.52,0,0,1-.4-7.74,42.74,42.74,0,0,1,4.28-16.14,41.59,41.59,0,0,1,8-11.18l.47-.48.41-.37.72-.66.08-.07c.46-.45.92-.83,1.37-1.2l.42-.36a76.18,76.18,0,0,1,7.65-5.54c2.37-1.51,5-3,8.24-4.76,2.62-1.4,5.37-2.77,8.41-4.2,2.6-1.23,5.3-2.45,8.23-3.73,3.36-1.48,6.67-2.89,9.87-4.25l5.68-2.43c5.77-2.47,10-4.4,13.74-6.24,1.8-.9,3.92-2,5.91-3.14l.06,0c.26-.14.52-.3.77-.45l.54-.33.28-.17c.34-.2.66-.39.94-.59l1.57-1,.9-.63a84.24,84.24,0,0,0,8.06-6.72,39.27,39.27,0,0,0,3.94-4.38c.36-.47.68-.93,1-1.36s.41-.64.59-1L137,15.56l-1.74,13.55c-.11.84-.26,1.72-.43,2.59-.29,1.41-.68,3-1.17,4.6a70.45,70.45,0,0,1-3.09,8.38l-.16.37,2.71-1c2.66-1,5.43-1.94,8.37-3,2.66-.94,5.42-1.92,8.22-2.93,6.35-2.3,11.5-4.26,16-6.38,1.22-.57,2.3-1.12,3.3-1.68a23.92,23.92,0,0,0,2.72-1.71l.17-.13.37-.28.16-.14.1-.09.28-.25.14-.14a1.84,1.84,0,0,1,.14-.14l.23-.26.86-1,.17-.21.19-.22.05-.06.89-1.19c.44-.62.85-1.24,1.21-1.85a20,20,0,0,0,1-1.93L182.42,10l.32,7.3.16-.37c.13-.3.25-.64.38-1l0-.06.57-1.77c0-.09,0-.16.06-.23l.06-.24.3-1.18.2-1c0-.19.08-.39.11-.59l.07-.42c0-.18.05-.4.08-.62l.92-6.67,4,5.4c.37.5.75,1,1.13,1.54,1.29,1.79,2.51,3.6,3.63,5.4,1.47,2.34,2.73,4.56,3.86,6.79a64.27,64.27,0,0,1,3.37,7.82,46.73,46.73,0,0,1,2.17,8.47l.07.51c.08.53.16,1.08.2,1.66l0,.41c.05.51.1,1.05.12,1.6V43c0,.59.07,1.19.07,1.82v.93c0,.24,0,.49,0,.73v.25c0,.27,0,.54,0,.81l.16.31a35.38,35.38,0,0,1,1.94,4.53,31,31,0,0,1,1.35,5.34,28.56,28.56,0,0,1,.27,6.11l-.08.92a7.54,7.54,0,0,1-.1.8l-.26,1.61c-.11.49-.23,1-.35,1.47l0,.12-.09.38-.38,1.19a1.72,1.72,0,0,0-.07.21c-.07.21-.14.43-.22.64L206,72.23c-.14.34-.29.73-.47,1.12l.34-.07a28.88,28.88,0,0,1,3-.42,23.78,23.78,0,0,1,3-.1,6.68,6.68,0,0,1,.71,0l.93.09c.48.06.94.13,1.41.21l.18,0,.61.14.15,0a5.16,5.16,0,0,1,.73.2l.25.08c.33.1.7.21,1.09.37a17.28,17.28,0,0,1,4.65,2.66l.11.09a17.79,17.79,0,0,1,1.5,1.37l5.87,6-8.27-1.32a13,13,0,0,0-1.65-.16H220a15.62,15.62,0,0,0-5.83,1,24.28,24.28,0,0,0-6.82,4l-.28.23a37.11,37.11,0,0,0-2.7,8.74,88.17,88.17,0,0,0-1.18,12.31c0,.82-.07,1.64-.11,2.45-.12,3.1-.24,6-.47,8.87l12.94-.45.43,18.09h15.17v11.39l-15,.64.05,2.54,6-.14h0c.33,0,.66,0,1-.06l2.13,0,3.08-.05,2.79,0v11.52l-15.92,1.09A25.53,25.53,0,0,1,206,181.26c0,.13,0,.26,0,.39,0,.4.09.85.14,1.3V183l.19,2.4,0,.49.09,1.54,0,.79c0,.77.05,1.56,0,2.39,0,.16,0,.33,0,.5,0,.38,0,.77,0,1.19l0,1.64c0,.4,0,.79-.06,1.18l0,.59-.06,1c0,.26-.05.51-.08.77v.12c0,.19,0,.37-.05.54,0,.44-.08.89-.14,1.36l-.24,1.8c-.07.46-.15.9-.22,1.34,0,.2-.08.41-.11.61l-.05.3c-.05.26-.09.52-.15.78l-.21.94a49.74,49.74,0,0,1-2.48,8.17,46,46,0,0,1-4.27,8.18l-.44.64c-.31.44-.61.88-.93,1.31l-.08.11-1.49,1.85a37,37,0,0,1-3.57,3.64l-.64.55c-.41.35-.87.73-1.39,1.13A45.27,45.27,0,0,1,183.3,235l-.48.25-.39.2-.15.07a58.21,58.21,0,0,1-8.24,3.29l-.54.17-.61.18-.58.17a84.61,84.61,0,0,1-17.89,3l-1.2.07-1.16,0-2.38.07h-1.83Zm-51.68-20,1.66,1.2c.18.13.39.27.62.41l1,.64.35.22c.15.1.3.2.46.29l1,.56c.76.45,1.6.91,2.56,1.41l.58.29.52.26a78,78,0,0,0,8.13,3.38c1.51.53,3.06,1,4.63,1.49l1.52.43,1.59.43,1.61.4c2.92.71,6,1.31,9.1,1.79A110.35,110.35,0,0,0,148.52,237h1.07l2.25-.07,1.1,0,1.14-.06A77.94,77.94,0,0,0,170.81,234l.49-.14.58-.17.47-.15a52.84,52.84,0,0,0,7.47-3l.13-.07.34-.17.45-.23a39.45,39.45,0,0,0,5.74-3.64c.45-.35.84-.67,1.19-1l.54-.46a31,31,0,0,0,3-3.07l1.38-1.71.82-1.17.39-.56a40.3,40.3,0,0,0,3.74-7.18,45.47,45.47,0,0,0,2.21-7.29c.07-.32.14-.63.2-.94v0a3.89,3.89,0,0,0,.09-.47l.06-.34c0-.18.07-.4.11-.62.07-.38.13-.75.19-1.12l.24-1.79c.05-.36.08-.73.11-1.11l.06-.59v-.12c0-.23,0-.46.07-.69l.05-.82,0-.62.06-1,0-1.64c0-.34,0-.66,0-1s0-.39,0-.58c0-.73,0-1.46,0-2.17l0-.79-.08-1.42c0-.16,0-.3,0-.44l-.18-2.25c0-.43-.1-.86-.14-1.28s-.09-.8-.15-1.18l-.33-2.42,1.46-.95c5.88-3.85,8.19-10.64,8.4-15.72l.1-2.47,15.59-1.06v-.77l-1.25,0v0l-13.57.33-.31-13.46,15.14-.64v-.6h-15l-.43-17.9-1.86.07a19.3,19.3,0,0,1-.61,5.6c-1.26,4-3.58,4-6.52,4l-3.45,0-3.93,0,1.34-3.62a50,50,0,0,0,1.83-10c.32-3.21.46-6.67.61-10.35,0-.81.07-1.64.1-2.47A93.5,93.5,0,0,1,199,95.52a42,42,0,0,1,3.32-10.47l.15-.28.24-.46.4-.33.8-.68a29.88,29.88,0,0,1,8.41-4.91l.19-.07-.34,0-.25,0h-.13a18.77,18.77,0,0,0-2.36.07c-.85.08-1.69.2-2.49.35a33.56,33.56,0,0,0-5.7,1.64l-7.11,2.73,3.71-6.64c.46-.81.91-1.66,1.38-2.6l.68-1.37.38-.81.26-.56c.13-.27.26-.58.39-.92l.42-1,.09-.28c0-.1.06-.2.1-.3l.33-1.07c0-.06,0-.12.05-.18.1-.44.21-.89.31-1.33l.23-1.44a2.13,2.13,0,0,0,0-.25l.07-.88a22.85,22.85,0,0,0-.21-4.87,26.91,26.91,0,0,0-1.13-4.4,30.12,30.12,0,0,0-1.65-3.84c-.14-.28-.28-.55-.43-.82l-.39-.7.05-.81c0-.48.05-.93.06-1.38v-.28c0-.18,0-.37,0-.56l0-.92c0-.5,0-1-.05-1.54l0-.23c0-.45-.06-.89-.1-1.36l0-.47c0-.43-.1-.86-.16-1.32l-.08-.52a41.58,41.58,0,0,0-1.9-7.42,59.76,59.76,0,0,0-3.1-7.15c-1-2.09-2.23-4.17-3.61-6.36-.32-.52-.66-1-1-1.57l-.34,1.05c-.15.39-.3.79-.47,1.19-.42,1-.85,1.87-1.3,2.71-.84,1.58-1.87,3.28-3.13,5.2-.45.67-.91,1.37-1.4,2.07l-6.59,9.51,1-7.11-.08.07-.3.27a3,3,0,0,1-.27.23l-.09.08c-.2.17-.4.33-.61.48l-.2.16a32.89,32.89,0,0,1-3.34,2.11c-1.11.62-2.3,1.22-3.63,1.85C163.31,39,158,41,151.53,43.34c-2.82,1-5.58,2-8.26,2.93-2.92,1-5.68,2-8.32,3-3.68,1.33-6.73,2.49-9.33,3.53l-7.51,3,4.11-7a60.17,60.17,0,0,0,3.26-6.35c.41-.92.79-1.84,1.15-2.77-2,1.78-4.28,3.64-6.84,5.54l-.05,0-1.33.94-1.28.83c-.4.27-.79.51-1.17.73l-.31.19-.48.29c-.3.19-.62.38-1,.57-2.1,1.22-4.3,2.35-6.18,3.29C104.18,54,99.86,56,94,58.49l-5.71,2.43c-3.18,1.36-6.47,2.76-9.8,4.22-2.9,1.27-5.55,2.47-8.11,3.68-2.95,1.38-5.62,2.72-8.16,4.07C59.1,74.56,56.6,76,54.37,77.44a70.17,70.17,0,0,0-7.09,5.11l-.43.36c-.4.34-.78.65-1.11,1L45.6,84l-.71.66-.37.34-.36.35a39.36,39.36,0,0,0-2.73,3,36.93,36.93,0,0,0-7.94,20.69,29.41,29.41,0,0,0,.32,6.5,17.7,17.7,0,0,0,1.77,5.46,9.18,9.18,0,0,0,1.41,2l.48.47a1.73,1.73,0,0,0,.21.17l.13.1a4.08,4.08,0,0,0,.8.49l.08,0a2.08,2.08,0,0,0,.3.13l1.67.61.16,2.17c0,.21,0,.43.07.65l0,.3c0,.18,0,.37.07.56l.08.45c.07.48.14.93.24,1.38v.06c.24,1.32.59,2.75.94,4.1.43,1.61.86,3.1,1.3,4.51l.44,1.38c.1.33.21.66.33,1l.13.4.27.79.45,1.25c1,2.89,2.25,5.86,3.67,9.08,1.12,2.53,2.27,5,3.42,7.24l.14.29L53,162l-.72,1.26c-.08.14-.17.28-.25.43a22.72,22.72,0,0,0-1.41,3.45l-.37,1.09-1,.5-.42.2-.52.25-.11.07-.24.14-.52.31-.1.08-.26.18a12.17,12.17,0,0,0-2.94,3.11,16.2,16.2,0,0,0-2,4.32,24.86,24.86,0,0,0-.72,10.52,28.73,28.73,0,0,0,3.72,10.81,25.84,25.84,0,0,0,1.63,2.41l.22.27a7.88,7.88,0,0,0,.64.78l.17.19c.29.34.57.65.83.91l0,.05a55.69,55.69,0,0,0,4.23,4A32.81,32.81,0,0,0,62,213a17.24,17.24,0,0,0,4.65,1.11,10.9,10.9,0,0,0,4.2-.44l.09,0a10.3,10.3,0,0,0,1.78-.77l.31-.19.12-.07.18-.11.11-.06,0,0,.33-.24c.17-.12.34-.24.43-.32l.09-.08A13.71,13.71,0,0,0,76.86,209a11.58,11.58,0,0,0,.91-1.59L80,202.6l2.65,4.58c.23.4.47.81.72,1.22A54.25,54.25,0,0,0,87,213.62l.38.48c.23.27.45.55.69.82l1.28,1.45c.77.82,1.57,1.66,2.4,2.43l.27.25.43.41.69.6.74.65.34.29L96,222.37ZM202.54,121.31l-.06.65a65.09,65.09,0,0,1-1.15,7.6h1.1a.56.56,0,0,0,0-.12,19.09,19.09,0,0,0,.28-5.67l-.06-.68Z"/><path d="M228.42,154.86V161l-1.81.12-.23-.17q-.66-.51-1.29-1.05l2-.14v-3.56l-4.77.12a1,1,0,0,1,0-.14,2.66,2.66,0,0,1,0-1.19Z"/><path d="M228.42,140.58v6l-15.08.64.18,8,7.17-.17a3.9,3.9,0,0,0,.05,1.32l-8.51.21L212,145.94l15.11-.64v-3.4H212l-.42-18-4.73.17a21.47,21.47,0,0,1-.5,6.55c-1,3-2.36,3-5.16,3l-3.87,0c.15-.42.29-.86.44-1.32l3.43,0c2.81,0,3.24,0,3.9-2,.75-2.36.4-6.69.4-6.73l-.06-.7,7.44-.26.43,18Z"/><path class="b" d="M227.09,156.21v3.56l-2,.14-2.08.14-11.59.79v.61c0,4.72-2,12.48-8.54,17.07-.32.23-.66.45-1,.66a20,20,0,0,1-5.62,2.33,21.53,21.53,0,0,1-18.81-3.72c-.73-.53-1-.72-1.4-.59H176c-.3.12-.45.38-.65.81,0,.09-.09.2-.13.31a18.69,18.69,0,0,1-6,7.68c-3.41,2.74-10.26,5.2-17.72,5.77h0a38.84,38.84,0,0,1-7.31-.09,30.71,30.71,0,0,1-7.07-1.58c-11.21-4-14-24.31-14-24.51L123,165l-2.14.12-.89,0-21.2,1.18-1.29.07v-4.26l4.45-.15.46,0h.88l.7,0v0l1.34,0,.88,0,15.93-.55V147.46H97.17V142.7h26.39V120l1.2.19,11,1.74c.05,1.32.19,4.67.41,6.44.29,2.4.92,3.64,3.71,4.25,2.11.46,40,.85,55.16,1h2.19a.28.28,0,0,1,0,.09.36.36,0,0,0,0-.09l3.87,0c2.8,0,4.21,0,5.16-3a21.47,21.47,0,0,0,.5-6.55l4.73-.17.42,18h15.08v3.4l-15.11.64.25,10.63,8.51-.21,1.58,0ZM205.51,158a37.25,37.25,0,0,0,.24-10.71l-.08-.56H176.76v0h0l-.06.56c-.13,1.41-.2,2.78-.2,4.09-.07,7.77,2,14,5.86,17.41a11.88,11.88,0,0,0,8.14,3,18.59,18.59,0,0,0,4.06-.48,12.8,12.8,0,0,0,5.68-2.82l.29-.26C203,165.91,204.71,162.46,205.51,158ZM170,161.13a46.3,46.3,0,0,0,.31-13.37l-.08-.57h-36v0h0l-.05.57a49.24,49.24,0,0,0-.26,5.21c-.08,9.65,2.48,17.38,7.29,21.63a14.76,14.76,0,0,0,10.1,3.67,23.06,23.06,0,0,0,5.06-.6C163.61,176.07,168.33,170.34,170,161.13Z"/><path d="M226.61,161.13l-2.23.15a17.48,17.48,0,0,1-1.37-1.23l2.08-.14q.63.54,1.29,1.05Z"/><path d="M224.38,161.28l-11.66.8c-.21,5.19-2.55,13.26-9.64,17.9,0-.18,0-.35-.07-.53s-.09-.63-.14-.93c6.51-4.59,8.5-12.35,8.54-17.07v-.61l11.59-.79A17.48,17.48,0,0,0,224.38,161.28Z"/><path d="M222.28,156.19a1,1,0,0,0,0,.14l-1.58,0a3.9,3.9,0,0,1-.05-1.32l1.59,0A2.66,2.66,0,0,0,222.28,156.19Z"/><path d="M221,78.87A15.49,15.49,0,0,1,222.27,80a16.14,16.14,0,0,0-2-.2h-.17a13,13,0,0,0-1.9-1.19,18.44,18.44,0,0,1,2.15.09l.55.07Z"/><path d="M220.92,78.79l-.55-.07a18.44,18.44,0,0,0-2.15-.09,16.32,16.32,0,0,0-1.76-.75c-.35-.14-.72-.23-1.09-.34a5.25,5.25,0,0,0-.57-.13l-.57-.13L213,77.12l-.61,0a4.09,4.09,0,0,0-.61,0,21.45,21.45,0,0,0-2.52.09c-.86.09-1.74.21-2.61.38A39,39,0,0,0,199,79.86c.42-.7.82-1.4,1.21-2.1A35.13,35.13,0,0,1,206.4,76a26.36,26.36,0,0,1,2.75-.39,19.1,19.1,0,0,1,2.72-.08,4.92,4.92,0,0,1,.67,0l.67.06,1.3.2.63.15a6.25,6.25,0,0,1,.62.16c.4.13.81.24,1.2.4A14.94,14.94,0,0,1,220.92,78.79Z"/><path d="M220.12,79.82A18.35,18.35,0,0,0,213.24,81a26.78,26.78,0,0,0-7.61,4.46l-.75.63a23.41,23.41,0,0,1,1.91-3.18l.24-.35.1-.13a24.43,24.43,0,0,1,5.64-2.79,18.9,18.9,0,0,1,5.45-1A13,13,0,0,1,220.12,79.82Z"/><path class="c" d="M216.46,77.88a16.32,16.32,0,0,1,1.76.75,18.9,18.9,0,0,0-5.45,1,24.43,24.43,0,0,0-5.64,2.79,28.1,28.1,0,0,0-2.48,1.82c-.41.33-.8.66-1.18,1a30.28,30.28,0,0,0-5.11,5.86A27.49,27.49,0,0,0,195.07,98a21.47,21.47,0,0,0-1,5c-.07,1.21,0,1.88.14,1.88s.21-.65.46-1.8a32.57,32.57,0,0,1,1.44-4.72,29.9,29.9,0,0,1,3.44-6.41,27.66,27.66,0,0,1,1.83-2.35,41.47,41.47,0,0,0-1.81,6,75.9,75.9,0,0,0-1.45,13c-.2,4.61-.27,9-.53,12.89a73.47,73.47,0,0,1-.92,8c-.73-4.57-1.65-9.41-2.9-14.37l-.66-2.44-.33-1.2c-.12-.41-.26-.82-.39-1.22-.25-.82-.6-1.59-.91-2.37l-.12-.29-.14-.28-.28-.56c-.19-.36-.35-.75-.56-1.1a34.19,34.19,0,0,0-5.67-7.51l-.77-.75c.38-.3.75-.6,1.12-.92a63.51,63.51,0,0,0,9.68-10.27A69.28,69.28,0,0,0,199,79.86a39,39,0,0,1,7.67-2.34c.87-.17,1.75-.29,2.61-.38a21.45,21.45,0,0,1,2.52-.09,4.09,4.09,0,0,1,.61,0l.61,0,1.19.16.57.13a5.25,5.25,0,0,1,.57.13C215.74,77.65,216.11,77.74,216.46,77.88Z"/><path d="M207.13,82.41l-.1.13-.24.35a23.41,23.41,0,0,0-1.91,3.18,33.93,33.93,0,0,0-3.5,3.49,30.54,30.54,0,0,1,1.94-4.09l.15-.23c.38-.35.77-.68,1.18-1A28.1,28.1,0,0,1,207.13,82.41Z"/><path d="M205.75,147.29a37.25,37.25,0,0,1-.24,10.71c-.8,4.46-2.5,7.91-5,10.23-.22-.62-.37-.93-.42-.91a0,0,0,0,0,0,0l-.36-.19c5.79-5.53,5.06-16.48,4.8-19.09h-1.9c0-.5,0-1-.06-1.32h3.12Z"/><path d="M205.05,58.13a25.44,25.44,0,0,1,.24,5.49l-.06.72c0,.24,0,.48-.08.72-.08.48-.16,1-.23,1.45s-.23,1-.35,1.46c0,.12,0,.25-.09.36l-.11.36-.24.73c-.08.24-.14.49-.24.73s-.19.48-.29.71c-.19.48-.38,1-.6,1.43s-.43.92-.65,1.39l-.69,1.39c-.46.9-.93,1.79-1.43,2.69-1.22.46-2.37,1-3.46,1.5,1.08-1.72,2.06-3.45,3-5.17q.34-.69.69-1.35c.23-.45.44-.9.66-1.35s.4-.88.59-1.32c.09-.22.18-.43.28-.65s.15-.44.23-.66.15-.45.22-.67l.12-.32c0-.11.05-.23.09-.34.11-.44.22-.88.34-1.32l.24-1.33c0-.22.06-.44.08-.66s.05-.44.07-.65a23.92,23.92,0,0,0-.09-5.09,28.37,28.37,0,0,0-1-4.62,28.93,28.93,0,0,0-1-2.72c.13-.94.22-1.9.28-2.89.17.29.33.6.48.91a30.91,30.91,0,0,1,1.8,4.18A29.37,29.37,0,0,1,205.05,58.13Z"/><path d="M204.88,86.07l-.1.19A38.72,38.72,0,0,0,201.69,96a90.37,90.37,0,0,0-1.24,12.69c-.19,4.56-.32,9-.71,13a53.65,53.65,0,0,1-2,10.55l0,0h-.68c-.13-.92-.27-1.86-.42-2.8a73.47,73.47,0,0,0,.92-8c.26-3.93.33-8.28.53-12.89a75.9,75.9,0,0,1,1.45-13,41.47,41.47,0,0,1,1.81-6A33.93,33.93,0,0,1,204.88,86.07Z"/><path class="b" d="M204.51,148.05c.26,2.61,1,13.56-4.8,19.09a11.41,11.41,0,0,1-5.47,2.88c-4.53,1-8.25.28-11-2.18a10.68,10.68,0,0,1-1.41-1.51,10.47,10.47,0,0,0,7,2.45,16.33,16.33,0,0,0,3.56-.42,11.06,11.06,0,0,0,7.06-5.09l.25-.4a21.11,21.11,0,0,0,2.46-7.14,38.84,38.84,0,0,0,.5-7.68Z"/><path d="M203.85,190.59c0,.53,0,1.07,0,1.61s0,1.1,0,1.66-.06,1.13-.09,1.7l-.06.87c0,.29-.05.58-.08.88-.06.58-.1,1.18-.18,1.78l-.24,1.82c-.09.61-.21,1.23-.32,1.85-.06.31-.1.63-.17.94l-.21.94a47.51,47.51,0,0,1-2.34,7.73,42.94,42.94,0,0,1-4,7.7c-.43.61-.86,1.24-1.3,1.85l-1.44,1.8a33.7,33.7,0,0,1-3.3,3.36l-.58.5c-.93-.22-1.81-.44-2.65-.66.63-.47,1.23-1,1.81-1.46a32.81,32.81,0,0,0,3.12-3.12l1.38-1.68c.43-.58.84-1.17,1.26-1.74a42.2,42.2,0,0,0,3.92-7.28,46.35,46.35,0,0,0,2.38-7.4c.07-.31.15-.61.22-.91s.12-.6.18-.91c.12-.6.25-1.19.35-1.79l.27-1.76c.09-.58.14-1.16.22-1.73,0-.29.06-.57.1-.85s0-.57.07-.85c0-.56.1-1.11.13-1.66s.06-1.09.08-1.62,0-1.06.05-1.58c0-1,0-2.05,0-3,0-.49,0-1,0-1.45,0-.24,0-.47,0-.71s0-.46,0-.69c0-.46,0-.91-.07-1.36l-.09-1.3c0-.42-.06-.84-.1-1.25l0-.15q.56-.31,1.08-.66l.09.68c.06.42.11.84.16,1.27s.09.87.14,1.31l.12,1.37.06.71v.24h0l0,.47.09,1.47C203.81,188.5,203.86,189.53,203.85,190.59Z"/><path class="c" d="M203.26,58.38a23.92,23.92,0,0,1,.09,5.09c0,.21,0,.43-.07.65s0,.44-.08.66L203,66.11c-.12.44-.23.88-.34,1.32,0,.11-.06.23-.09.34l-.12.32c-.07.22-.15.44-.22.67s-.14.44-.23.66-.19.43-.28.65c-.19.44-.36.87-.59,1.32s-.43.9-.66,1.35-.46.89-.69,1.35c-.91,1.72-1.89,3.45-3,5.17-.49.78-1,1.56-1.52,2.34-.74,1.08-1.51,2.16-2.33,3.22a63.38,63.38,0,0,1-9.36,9.87c-.46.39-.92.77-1.38,1.13s-1.12.87-1.69,1.29a57.08,57.08,0,0,1-8.28,5c-.49.23-1,.49-1.47.71l-1.49.66-1.49.6c-.25.11-.5.2-.75.29l-.74.27a58.22,58.22,0,0,1-6,1.79l-.73.18-.74.16c-.49.1-1,.21-1.46.3-1,.17-1.92.37-2.89.48l-.56.08-2.27.32c-.46.07-.92.11-1.38.15h-.06l-1.31.13c-1.8.21-3.55.26-5.24.37-.84,0-1.66,0-2.47.06l-1.2,0-1.17,0c-.77,0-1.52,0-2.26,0l-2.14-.12c-.69,0-1.36-.11-2-.16s-1.28-.11-1.89-.2l-1.76-.22-1.62-.26-.77-.13-.72-.14-1.34-.26c-1.69-.36-3-.71-3.88-.94s-1.34-.37-1.38-.29.38.34,1.22.73a31.52,31.52,0,0,0,3.81,1.38c.42.13.88.24,1.35.37l.72.2.77.17c.52.12,1.06.25,1.63.36l1.78.33c.62.12,1.26.19,1.92.29s1.35.2,2.05.25l2.18.21c.75.06,1.51.09,2.3.13l1.19.07h1.23c.82,0,1.66,0,2.52,0l2.57-.08c-.51.24-1,.47-1.57.68a38.15,38.15,0,0,1-3.83,1.26,57.57,57.57,0,0,1-8.36,1.5c-2.92.32-5.93.51-9,.61-1.54.06-3.1.09-4.68.11l-2.38,0-2.42,0c-6.48.09-13.19.46-20,1.06S80.51,117.09,74.1,118c-1.93.29-3.83.59-5.72.9a17.25,17.25,0,0,1,.88-1.86,26.45,26.45,0,0,1,2.79-4.22,36.85,36.85,0,0,1,4-4.23A71.89,71.89,0,0,1,87,100.71c4.11-2.5,8.18-4.65,11.89-6.59s7.08-3.68,9.85-5.25a70.45,70.45,0,0,0,6.44-4,11,11,0,0,0,1.59-1.34,1.31,1.31,0,0,0,.31-.49.17.17,0,0,0,0-.14.15.15,0,0,0-.07,0h0a.15.15,0,0,1,0,.12,1.9,1.9,0,0,1-.37.32c-.37.26-1,.62-1.72,1.06-1.52.88-3.79,2.07-6.62,3.5S102,91,98.24,92.83s-7.88,4-12,6.55a67.16,67.16,0,0,0-11.08,8.19A37.25,37.25,0,0,0,71,112.06a25.6,25.6,0,0,0-2.76,4.53,13.34,13.34,0,0,0-.57,1.31c-.16.41-.3.82-.42,1.22l-.5.08c-2,.34-3.92.68-5.84,1,.11-.28.22-.57.35-.86a34.64,34.64,0,0,1,3.35-6.18l.25-.35.4-.57c.69-.94,1.45-1.9,2.27-2.86Q69,107.71,70.82,106a69.91,69.91,0,0,1,8.09-6.58,109.21,109.21,0,0,1,9.82-6.12c3.51-2,7.23-3.85,11.09-5.67,7.72-3.66,15.27-6.75,22.08-9.77,3.4-1.51,6.62-3,9.54-4.64.36-.2.72-.43,1.07-.63l1-.66,2-1.3,1.83-1.34c.3-.22.6-.43.89-.66l.83-.68.81-.68c.26-.22.54-.43.78-.67l1.43-1.36a8.45,8.45,0,0,0,.66-.68c.21-.23.42-.45.62-.68s.42-.43.6-.66l.54-.67a21.25,21.25,0,0,0,3.06-4.93,12.28,12.28,0,0,0,1-3.54,2.41,2.41,0,0,0-.06-1.28c-.05,0-.07.44-.25,1.23A14.84,14.84,0,0,1,147,57.37,22.13,22.13,0,0,1,143.84,62l-.54.64c-.19.21-.4.41-.61.62l-.63.64c-.21.21-.42.44-.66.64-.46.42-.94.84-1.44,1.28a9.68,9.68,0,0,1-.77.64l-.81.64-.83.65c-.28.21-.58.41-.88.62l-1.83,1.28-2,1.23-1,.62c-.35.2-.69.41-1.05.6-2.87,1.56-6.09,3-9.49,4.46-6.8,2.93-14.39,6-22.17,9.67C95.27,88.06,91.52,90,88,92a107.05,107.05,0,0,0-9.9,6.29,69.09,69.09,0,0,0-8.16,6.82c-1.19,1.19-2.28,2.37-3.28,3.56-.67.83-1.31,1.65-1.89,2.46-.19.26-.37.53-.55.79l-.23.34a33.84,33.84,0,0,0-3.5,6.83c-.17.46-.32.92-.46,1.36l-4.3.83c-.73.15-1.45.29-2.17.45l-1.07.22c.2-.18.38-.37.55-.55a8.06,8.06,0,0,0,1.3-1.9,4.12,4.12,0,0,0,.35-1.37c0-.33-.05-.49-.09-.49s-.06.16-.14.45a5.84,5.84,0,0,1-.54,1.19,8.76,8.76,0,0,1-1.37,1.63,15.42,15.42,0,0,1-1.87,1.43l-.5.31a33.56,33.56,0,0,1-7.51,3.13,6.6,6.6,0,0,1-2.25.33,6.47,6.47,0,0,1-.87-.11l-.06-.43c0-.17,0-.34,0-.5l-.18,0-1.18.36-.08,0a7.31,7.31,0,0,1-.89-.6,6.42,6.42,0,0,1-.48-.43l-.24-.22-.22-.25a11.09,11.09,0,0,1-1.53-2.3,19.32,19.32,0,0,1-1.74-5.84,30.28,30.28,0,0,1-.21-6.7,38.34,38.34,0,0,1,4-14.24A38,38,0,0,1,41,88.09,34.86,34.86,0,0,1,43.81,85l.37-.37.39-.36c.27-.23.53-.47.79-.71.51-.49,1.08-.93,1.62-1.39a73,73,0,0,1,7.15-5.12C56.65,75.47,59.3,74,62,72.52s5.46-2.8,8.19-4.09,5.42-2.53,8.1-3.71c5.34-2.38,10.54-4.6,15.47-6.79s9.6-4.34,13.88-6.55c2.14-1.12,4.19-2.24,6.11-3.4.49-.28,1-.6,1.42-.89s.92-.58,1.37-.9l1.32-.9,1.26-.95A80.26,80.26,0,0,0,127.43,37c.91-.95,1.73-1.88,2.46-2.78-.09.29-.19.59-.29.89-.81,2.46-1.82,5.13-3,7.86a75.81,75.81,0,0,1-3.8,7.5l-.39.67-1.82.77a60.52,60.52,0,0,0-8.71,4.46c-1.95,1.27-2.81,2.29-2.71,2.39s1.13-.6,3.17-1.6,4.9-2.23,8.59-3.61l.28-.1,1.82-.67c3.43-1.25,7.39-2.6,11.72-4.07,5.12-1.73,10.77-3.61,16.67-5.73a159.8,159.8,0,0,0,16.4-6.75c1.23-.61,2.41-1.24,3.54-1.91a29.41,29.41,0,0,0,3.2-2.17c.24-.2.49-.39.72-.61s.24-.2.35-.31.23-.23.34-.34a3.47,3.47,0,0,0,.32-.34l.31-.35.53-.68.53-.67c.17-.22.35-.44.5-.67s.19-.28.28-.43c-.16.87-.36,1.76-.59,2.69q-1.66,2.25-3.26,4.28c-2.15,2.76-4.15,5.19-5.83,7.23-3.38,4.08-5.51,6.58-5.35,6.73s2.57-2.09,6.18-6c1.8-2,3.89-4.33,6.12-7.06.33-.39.65-.8,1-1.21.84-1,1.69-2.14,2.55-3.28,1.12-1.49,2.24-3.06,3.33-4.71a57.42,57.42,0,0,0,3.05-5.15c.45-.86.85-1.73,1.22-2.6.17-.44.33-.89.48-1.33l.39-1.3c.06-.22.13-.43.19-.64s.1-.43.15-.64a1.77,1.77,0,0,0,0-.2c.74,1.14,1.48,2.34,2.22,3.59a79.33,79.33,0,0,1,6.6,13.71,44.48,44.48,0,0,1,2,7.54c.09.62.2,1.23.26,1.85s.14,1.23.18,1.84.08,1.09.1,1.63v.17c0,.3,0,.59,0,.89v.87c0,.22,0,.43,0,.64a37.92,37.92,0,0,1-.51,5.91,33.19,33.19,0,0,1-1.44,5.53A28,28,0,0,1,193.59,66c-1.18,1.59-2,2.34-1.89,2.47s1.13-.41,2.58-1.88a20.28,20.28,0,0,0,2.37-2.92A25.34,25.34,0,0,0,199,59.31a32.63,32.63,0,0,0,1.81-5.77c.16-.81.31-1.64.42-2.5a28.93,28.93,0,0,1,1,2.72A28.37,28.37,0,0,1,203.26,58.38Z"/><path d="M203.47,85.24l-.15.23a30.54,30.54,0,0,0-1.94,4.09,27.66,27.66,0,0,0-1.83,2.35,29.9,29.9,0,0,0-3.44,6.41,32.57,32.57,0,0,0-1.44,4.72c-.25,1.15-.35,1.8-.46,1.8s-.21-.67-.14-1.88a21.47,21.47,0,0,1,1-5,27.49,27.49,0,0,1,3.29-6.85A30.28,30.28,0,0,1,203.47,85.24Z"/><path d="M203,179.45c0,.18.05.35.07.53q-.53.35-1.08.66c0-.36-.06-.71-.1-1.06,0-.13,0-.27,0-.4.35-.21.69-.43,1-.66C202.92,178.82,203,179.13,203,179.45Z"/><path d="M202.61,148.05a38.84,38.84,0,0,1-.5,7.68,21.11,21.11,0,0,1-2.46,7.14v-.4c0-.59,0-1.45-.06-2.54a32.12,32.12,0,0,0,1.69-11.88Z"/><path d="M202.61,148.05h-1.33c0-.51,0-1-.06-1.32h1.33C202.57,147.1,202.6,147.55,202.61,148.05Z"/><path class="d" d="M202.38,187.55c0,1,0,2,0,3,0,.52,0,1-.05,1.58s-.05,1.07-.08,1.62-.09,1.1-.13,1.66c0,.28,0,.56-.07.85s-.07.56-.1.85c-.08.57-.13,1.15-.22,1.73l-.27,1.76c-.1.6-.23,1.19-.35,1.79-.06.31-.11.61-.18.91s-.15.6-.22.91a46.35,46.35,0,0,1-2.38,7.4,42.2,42.2,0,0,1-3.92,7.28c-.42.57-.83,1.16-1.26,1.74l-1.38,1.68a32.81,32.81,0,0,1-3.12,3.12c-.58.5-1.18,1-1.81,1.46-.4.31-.82.61-1.25.9a41.68,41.68,0,0,1-4.58,2.74l-.17.09-.45.22a51.23,51.23,0,0,1-6.58,2.7l-.76.25-.25.07-.76.24-.1,0A81.07,81.07,0,0,1,153,237.25l-1,0h-.18l-1.3,0-.89,0a110.79,110.79,0,0,1-18.3-1.21,112.87,112.87,0,0,1-11.93-2.42l-1.22-.34-1.53-.43-1.44-.44c-.84-.26-1.66-.52-2.47-.8a78.22,78.22,0,0,1-8.24-3.32l-1.72-.85-.67-.35c-.47-.24-.93-.5-1.37-.76l-.91-.5c-.3-.17-.59-.37-.88-.54s-.58-.36-.86-.55l-.18-.11a7.74,7.74,0,0,1-.67-.44l-1-.65-.7-.49c-.52-.4-1-.79-1.56-1.19l-.39-.29-.37-.31-.74-.62-.72-.61-.7-.64c-.93-.83-1.79-1.71-2.63-2.56l-1.21-1.32c-.39-.43-.76-.88-1.13-1.32a56,56,0,0,1-3.9-5.26c-.48-.74-.93-1.47-1.36-2.19s-.7-1.22-1-1.81L79.32,204c-.83-1.63-1.55-3.18-2.16-4.63s-1.11-2.8-1.54-4c-.83-2.45-1.36-4.4-1.69-5.72a8.74,8.74,0,0,0-.58-2,6.07,6.07,0,0,0,.11,2.11,45.66,45.66,0,0,0,1.29,5.9c.37,1.27.82,2.66,1.37,4.16s1.23,3.11,2,4.8c.37.75.76,1.52,1.18,2.3a12.46,12.46,0,0,1-1.55,2.72A15,15,0,0,1,75,212.47c-.27.22-.57.4-.86.6a3,3,0,0,1-.45.27l-.47.27a10.47,10.47,0,0,1-2,.79,12,12,0,0,1-4.55.38,18.67,18.67,0,0,1-4.81-1.25,34.16,34.16,0,0,1-9.21-5.85,55.72,55.72,0,0,1-4.25-4.06c-.35-.35-.66-.72-1-1.09s-.62-.75-.92-1.13a24.76,24.76,0,0,1-1.66-2.47A29.38,29.38,0,0,1,41,188a26,26,0,0,1,.61-10.76,17.54,17.54,0,0,1,2-4.53,12.64,12.64,0,0,1,3.09-3.4,4.7,4.7,0,0,1,.44-.34l.13-.08.33-.21.47-.29.33-.17.15-.07.48-.25.49-.19.5-.19c.16-.07.33-.11.5-.17a17.5,17.5,0,0,1,2.13-.54c.28-.05.55-.1.83-.13s.69-.09,1-.11.45,0,.67,0,.62,0,.92,0a14,14,0,0,1,5.22,1.25,17.52,17.52,0,0,1,4.46,3,23.36,23.36,0,0,1,2.38,2.51c.51.61.78.94.85.9s-.06-.46-.46-1.17a15.9,15.9,0,0,0-2.13-2.89,16.88,16.88,0,0,0-4.52-3.51A15,15,0,0,0,56.53,165a20.06,20.06,0,0,1,.65-2c1.28,0,8.11-.2,16.6-.39-.24,1.35-.44,2.66-.6,3.91a62.87,62.87,0,0,0-.53,7,32.87,32.87,0,0,0,.24,4.75c.15,1.12.36,1.73.46,1.71s.05-2.47.41-6.41c.16-2,.43-4.3.84-6.87.21-1.33.46-2.72.74-4.16l18.52-.41v5.54l.88-.05,1.37-.07v.22L120,166.48c.33,4.45,1.77,14.49,8.21,20.8a18.85,18.85,0,0,0,13.13,5.34,37.71,37.71,0,0,0,6.8.6c9,0,17.78-2.9,21.86-6.18a20.08,20.08,0,0,0,6.41-8.15c.89.71,1.93,1.48,3.11,2.28a23.18,23.18,0,0,0,2.39,1.4l.07,0h0l0,0,.09.05h0v.13a8.62,8.62,0,0,1-.16,1.33,9,9,0,0,1-2.27,4.51,10.87,10.87,0,0,1-3.5,2.4,24.58,24.58,0,0,1-2.8,1c-.69.21-1.07.36-1.06.47s.42.16,1.17.13a12,12,0,0,0,3.09-.59,10.52,10.52,0,0,0,4.12-2.42,9.82,9.82,0,0,0,2.79-5.22,9.31,9.31,0,0,0,.17-1.57v-.35a22,22,0,0,0,6.73,1,25.43,25.43,0,0,0,6.14-.78,21.52,21.52,0,0,0,5.44-2.15l0,.15c0,.41.07.83.1,1.25l.09,1.3c0,.45,0,.9.07,1.36,0,.23,0,.46,0,.69s0,.47,0,.71C202.35,186.57,202.37,187.06,202.38,187.55Zm-17.91,15.31a7.9,7.9,0,0,0,2.34-1.41,11.06,11.06,0,0,0-2.58.85c-1.63.59-4,1.43-7,2.27a77.43,77.43,0,0,1-10.6,2.22l-1.53.21-1.57.14c-.53.05-1.07.11-1.61.15l-1.64.07-.84,0-.41,0h-3c-.29,0-.58,0-.86,0l-.86-.05-.87-.08a47.56,47.56,0,0,1-12.71-3.29A77.36,77.36,0,0,1,131,199.2l-.78-.46h0a3.72,3.72,0,0,1,0-.58,3.27,3.27,0,0,1,.23-1,2.82,2.82,0,0,1,1.13-1.31,7.38,7.38,0,0,1,1.2-.6c.31-.14.5-.24.5-.35s-.2-.21-.58-.26a3.79,3.79,0,0,0-2.64.8,3.44,3.44,0,0,0-.9,1.08,4.09,4.09,0,0,0-.44,1.33l0,.13a5.11,5.11,0,0,0-.05.78c0,.08,0,.15,0,.22s0,.36,0,.55a9.63,9.63,0,0,0,.72,2.76,9.49,9.49,0,0,0,1.17,2c.81,1,1.53,1.46,1.67,1.31s-.23-.81-.73-1.89a14.51,14.51,0,0,1-1.18-3.59l.08,0a65,65,0,0,0,9.75,5.13,46.34,46.34,0,0,0,13.1,3.51l.91.09.9,0,.89,0h3.06l.43,0,.85,0,1.69-.1c.55,0,1.1-.11,1.64-.16s1.08-.11,1.61-.18l1.56-.23a67.83,67.83,0,0,0,10.72-2.59A55.79,55.79,0,0,0,184.47,202.86Zm-23.35,11.4c2.68-.36,4.27-1,4.21-1.17s-1.67,0-4.3.07a47.22,47.22,0,0,1-10.15-.73,38.94,38.94,0,0,1-9.65-3.15c-2.36-1.13-3.76-2-3.9-1.81s1.06,1.35,3.37,2.79a29.49,29.49,0,0,0,4.28,2.1,32.3,32.3,0,0,0,5.61,1.6A33.21,33.21,0,0,0,161.12,214.26Z"/><path d="M201.9,179.58c0,.35.07.7.1,1.06a21.52,21.52,0,0,1-5.44,2.15,25.43,25.43,0,0,1-6.14.78,22,22,0,0,1-6.73-1,1.77,1.77,0,0,0,0-.23c0-.12,0-.23,0-.34v-.18s0-.13-.06-.13l-1-.46c-.79-.37-1.55-.82-2.28-1.25-1.44-.87-2.72-1.71-3.8-2.41l-.5-.33H176c.4-.13.67.06,1.4.59a21.53,21.53,0,0,0,18.81,3.72,20,20,0,0,0,5.62-2.33C201.87,179.31,201.89,179.45,201.9,179.58Z"/><path d="M201.6,44.8v.93c0,.31,0,.62,0,.92,0,.5,0,1-.07,1.5-.5-.93-1-1.78-1.54-2.58l-.59-.88c0-.54-.06-1.08-.1-1.63s-.12-1.22-.18-1.84-.17-1.23-.26-1.85a44.48,44.48,0,0,0-2-7.54,79.33,79.33,0,0,0-6.6-13.71c-.74-1.25-1.48-2.45-2.22-3.59.09-.36.17-.71.24-1.06s.08-.42.12-.62l.09-.62c0-.16.05-.32.08-.48,1.16,1.61,2.35,3.36,3.53,5.25s2.54,4.23,3.73,6.57a61.4,61.4,0,0,1,3.23,7.49,42.92,42.92,0,0,1,2,8c.09.66.2,1.32.25,2s.13,1.29.16,1.93S201.6,44.17,201.6,44.8Z"/><path d="M201.53,48.15c-.06,1-.15,2-.28,2.89-.18-.45-.38-.9-.58-1.33-.39-.87-.81-1.69-1.24-2.45,0-.21,0-.42,0-.64v-.87c0-.3,0-.59,0-.89v-.17l.59.88C200.5,46.37,201,47.22,201.53,48.15Z"/><path class="e" d="M201.28,148.05a32.12,32.12,0,0,1-1.69,11.88c-.2.49-.41,1-.65,1.45a10.07,10.07,0,0,1-6.89,5.68c-3.93.88-7.14.25-9.55-1.88-3-2.66-4.68-7.71-4.69-13.91v0c0-1,.06-2.11.15-3.2h23.32Z"/><path d="M201.28,148.05h-2.41c0-.43-.07-.87-.11-1.32h2.46C201.24,147.09,201.26,147.54,201.28,148.05Z"/><path d="M201.25,51c-.11.86-.26,1.69-.42,2.5A32.63,32.63,0,0,1,199,59.31a25.34,25.34,0,0,1-2.37,4.38,20.28,20.28,0,0,1-2.37,2.92c-1.45,1.47-2.49,2-2.58,1.88s.71-.88,1.89-2.47a28,28,0,0,0,3.89-7.32,33.19,33.19,0,0,0,1.44-5.53,37.92,37.92,0,0,0,.51-5.91c.43.76.85,1.58,1.24,2.45C200.87,50.14,201.07,50.59,201.25,51Z"/><path d="M200.5,168.23l-.29.26a4.62,4.62,0,0,1-.14-1.16,0,0,0,0,1,0,0S200.28,167.61,200.5,168.23Z"/><path d="M199.71,167.14l.36.19a4.62,4.62,0,0,0,.14,1.16,12.8,12.8,0,0,1-5.68,2.82,18.59,18.59,0,0,1-4.06.48,11.88,11.88,0,0,1-8.14-3c-3.87-3.42-5.93-9.64-5.86-17.41,0,6.57,1.84,11.82,5.15,14.75l.18.16a10.68,10.68,0,0,0,1.41,1.51c2.78,2.46,6.5,3.19,11,2.18A11.41,11.41,0,0,0,199.71,167.14Z"/><path d="M199.65,162.47v.4l-.25.4a6.61,6.61,0,0,1-.22-.74c-.07-.31-.15-.7-.24-1.15.24-.47.45-1,.65-1.45C199.63,161,199.65,161.88,199.65,162.47Z"/><path d="M200.23,77.76c-.39.7-.79,1.4-1.21,2.1-.65.27-1.29.54-1.9.83s-1.27.6-1.87.91c.53-.78,1-1.56,1.52-2.34C197.86,78.73,199,78.22,200.23,77.76Z"/><path d="M199.18,162.53a6.61,6.61,0,0,0,.22.74,11.06,11.06,0,0,1-7.06,5.09,16.33,16.33,0,0,1-3.56.42,10.47,10.47,0,0,1-7-2.45c-2.65-3.37-4.06-8.72-4-15.06,0,6.2,1.68,11.25,4.69,13.91,2.41,2.13,5.62,2.76,9.55,1.88a10.07,10.07,0,0,0,6.89-5.68C199,161.83,199.11,162.22,199.18,162.53Z"/><path d="M198.87,148.05h-1.72c-.06-.43-.11-.87-.17-1.32h1.78C198.8,147.18,198.83,147.62,198.87,148.05Z"/><path d="M197.12,80.69c.61-.29,1.25-.56,1.9-.83a69.28,69.28,0,0,1-4.28,6.35,63.51,63.51,0,0,1-9.68,10.27c-.37.32-.74.62-1.12.92-.58-.55-1.17-1.07-1.76-1.58.46-.36.92-.74,1.38-1.13a63.38,63.38,0,0,0,9.36-9.87c.82-1.06,1.59-2.14,2.33-3.22C195.85,81.29,196.48,81,197.12,80.69Z"/><path d="M197.77,132.29c-.15.46-.29.9-.44,1.32h-.05c-.06-.44-.12-.88-.19-1.32Z"/><path d="M197.33,133.61a.36.36,0,0,1,0,.09.28.28,0,0,0,0-.09Z"/><path d="M197.09,132.29c.07.44.13.88.19,1.32h-1.55c.11-.43.23-.86.34-1.32Z"/><path d="M197.15,148.05H178c-.09,1.09-.14,2.16-.15,3.2,0-1.05,0-2.13.13-3.24l16.9-1.28H197C197,147.18,197.09,147.62,197.15,148.05Z"/><path d="M196.67,129.49c.15.94.29,1.88.42,2.8h-1l.12-.48Q196.45,130.7,196.67,129.49Z"/><path d="M196.67,129.49q-.22,1.22-.48,2.31l-.12.48h-1.2c-.86-5.2-1.92-10.81-3.37-16.57-.21-.8-.43-1.6-.64-2.39-.11-.4-.21-.8-.32-1.19l-.36-1.12c-.22-.75-.54-1.46-.82-2.18l-.11-.27-.13-.26-.25-.52c-.17-.34-.32-.69-.51-1a33.32,33.32,0,0,0-5.19-7.09l-.93-.94c.57-.42,1.14-.86,1.7-1.32l.77.75a34.19,34.19,0,0,1,5.67,7.51c.21.35.37.74.56,1.1l.28.56.14.28.12.29c.31.78.66,1.55.91,2.37.13.4.27.81.39,1.22l.33,1.2.66,2.44C195,120.08,195.94,124.92,196.67,129.49Z"/><path d="M196.07,132.28c-.11.46-.23.89-.34,1.32h-.64c-.07-.43-.14-.88-.22-1.32Z"/><path d="M194.87,132.27c.08.44.15.89.22,1.32-15.14-.13-53.05-.52-55.16-1-2.79-.61-3.42-1.85-3.71-4.25-.22-1.77-.36-5.12-.41-6.44l-11-1.74-1.7-1.41h-.82v-.33l14.85,2.34,0,.55s.16,4.74.42,6.87.61,2.66,2.69,3.11C142.09,131.72,179.43,132.14,194.87,132.27Z"/><path d="M194.84,146.73,177.94,148c-.09,1.11-.14,2.19-.13,3.24v0c-.07,6.34,1.34,11.69,4,15.06l-.18-.16c-3.31-2.93-5.12-8.18-5.15-14.75,0-1.32.09-2.69.23-4.09l.05-.56.56,0Z"/><path class="d" d="M191.5,115.7c1.45,5.76,2.51,11.37,3.37,16.57-15.44-.13-52.78-.55-54.65-1-2.08-.45-2.44-1.06-2.69-3.11s-.42-6.83-.42-6.87l0-.55-14.85-2.34v.33h-1.7v20.68H93.86v9c-2.17.34-4.77.78-7.79,1.4-2.33.47-5.25,1.13-8.38,1.87.27-1.2.54-2.36.8-3.45.09-.43.19-.86.29-1.27-.25-.59-.53-1.25-.82-2l-.25-.61c-.78-1.9-1.67-4.16-2.6-6.7l-.7-1.95c-.22-.67-.46-1.36-.7-2.05-.47-1.41-1-2.86-1.52-4.33-1.09-3-2.16-5.76-3.18-8.29q2.68-.43,5.43-.82c6.37-.91,13-1.72,19.78-2.33s13.45-1,19.87-1.09l2.4,0,2.39,0c1.6,0,3.17-.07,4.74-.13,3.12-.13,6.18-.35,9.16-.71a58.82,58.82,0,0,0,8.67-1.66,39.24,39.24,0,0,0,4-1.39,33,33,0,0,0,3.72-1.84q.79-.48,1.56-1a11.07,11.07,0,0,0,1.13-.11l2.89-.34c1-.1,2-.29,3-.44l1.52-.29.76-.16.76-.17a57.44,57.44,0,0,0,6.2-1.78l.78-.28c.26-.09.52-.18.78-.29l1.56-.61,1.55-.68c.52-.22,1-.49,1.55-.73a56.79,56.79,0,0,0,9-5.48l.93.94a33.32,33.32,0,0,1,5.19,7.09c.19.33.34.68.51,1l.25.52.13.26.11.27c.28.72.6,1.43.82,2.18l.36,1.12c.11.39.21.79.32,1.19C191.07,114.1,191.29,114.9,191.5,115.7Z"/><path d="M188.59,11.75c0,.16-.05.32-.08.48l-.09.62c0,.2-.06.41-.12.62s-.15.7-.24,1.06c-.34-.55-.69-1.08-1-1.6,0-.11,0-.23.07-.34s.07-.39.11-.58.07-.39.11-.58,0-.19.05-.29,0-.18,0-.28,0-.42.08-.63C187.85,10.72,188.21,11.23,188.59,11.75Z"/><path d="M189.47,227.58c-.43.37-.86.72-1.31,1.06-.91-.27-1.78-.54-2.59-.82.43-.29.85-.59,1.25-.9C187.66,227.14,188.54,227.36,189.47,227.58Z"/><path d="M188.06,14.53a1.77,1.77,0,0,1,0,.2c-.05.21-.09.43-.15.64s-.13.42-.19.64l-.39,1.3c-.15.44-.31.89-.48,1.33-.37.87-.77,1.74-1.22,2.6a57.42,57.42,0,0,1-3.05,5.15c-1.09,1.65-2.21,3.22-3.33,4.71.29-1.24.51-2.43.66-3.56.46-.66.92-1.33,1.37-2,1.1-1.67,2.12-3.34,3-5,.44-.83.83-1.66,1.19-2.47.17-.42.32-.82.48-1.23l.39-1.24c.07-.2.13-.41.2-.61s.11-.41.16-.61l.3-1.2a1.14,1.14,0,0,0,.06-.25C187.37,13.45,187.72,14,188.06,14.53Z"/><path d="M186.81,201.45a7.9,7.9,0,0,1-2.34,1.41,55.79,55.79,0,0,1-6.88,2.77,67.83,67.83,0,0,1-10.72,2.59l-1.56.23c-.53.07-1.07.12-1.61.18s-1.09.12-1.64.16l-1.69.1-.85,0-.43,0H156l-.89,0-.9,0-.91-.09a46.34,46.34,0,0,1-13.1-3.51,65,65,0,0,1-9.75-5.13l-.08,0c0-.24-.07-.49-.1-.73s0-.44,0-.63l.78.46a77.36,77.36,0,0,0,9.74,4.74,47.56,47.56,0,0,0,12.71,3.29l.87.08.86.05c.28,0,.57,0,.86,0h3l.41,0,.84,0,1.64-.07c.54,0,1.08-.1,1.61-.15l1.57-.14,1.53-.21a77.43,77.43,0,0,0,10.6-2.22c3-.84,5.34-1.68,7-2.27A11.06,11.06,0,0,1,186.81,201.45Z"/><path d="M185.57,227.82c.81.28,1.68.55,2.59.82a42.35,42.35,0,0,1-6.14,3.9l-.46.24q-.15-.45-.3-.87c-.16-.45-.3-.87-.44-1.26l.17-.09A41.68,41.68,0,0,0,185.57,227.82Z"/><path d="M183.69,182.67v.22a9.31,9.31,0,0,1-.17,1.57,9.82,9.82,0,0,1-2.79,5.22,10.52,10.52,0,0,1-4.12,2.42,12,12,0,0,1-3.09.59c-.75,0-1.15,0-1.17-.13s.37-.26,1.06-.47a24.58,24.58,0,0,0,2.8-1,10.87,10.87,0,0,0,3.5-2.4,9,9,0,0,0,2.27-4.51,8.62,8.62,0,0,0,.16-1.33v-.13h0l-.09-.05,0,0h0l-.07,0a23.18,23.18,0,0,1-2.39-1.4c-1.18-.8-2.22-1.57-3.11-2.28v0l.06-.12.18.13a24.25,24.25,0,0,0,7,3.68Z"/><path d="M183.68,182.31a1.77,1.77,0,0,1,0,.23,24.25,24.25,0,0,1-7-3.68l-.18-.13-.06.12v0l-.57-.46-.5-.41c.2-.43.35-.69.65-.81l.5.33c1.08.7,2.36,1.54,3.8,2.41.73.43,1.49.88,2.28,1.25l1,.46c.07,0,0,.08.06.13V182C183.67,182.08,183.68,182.19,183.68,182.31Z"/><path d="M183.94,97.4c-.56.46-1.13.9-1.7,1.32-.58-.56-1.16-1.1-1.75-1.61.57-.42,1.13-.84,1.69-1.29C182.77,96.33,183.36,96.85,183.94,97.4Z"/><path d="M181.26,231.91q.15.42.3.87L181,233l-.3-1-.37-1.2.45-.22C181,231,181.1,231.46,181.26,231.91Z"/><path d="M180.49,97.11c.59.51,1.17,1,1.75,1.61a56.79,56.79,0,0,1-9,5.48c-.52.24-1,.51-1.55.73l-1.55.68-1.56.61c-.26.11-.52.2-.78.29l-.78.28a57.44,57.44,0,0,1-6.2,1.78l-.76.17-.76.16-1.52.29c-1,.15-2,.34-3,.44l-2.89.34a11.07,11.07,0,0,1-1.13.11,33.83,33.83,0,0,0,3.17-2.41l.56-.08c1-.11,1.92-.31,2.89-.48.49-.09,1-.2,1.46-.3l.74-.16.73-.18a58.22,58.22,0,0,0,6-1.79l.74-.27c.25-.09.5-.18.75-.29l1.49-.6,1.49-.66c.49-.22,1-.48,1.47-.71A57.08,57.08,0,0,0,180.49,97.11Z"/><path d="M180.74,232.07l.3,1a55.42,55.42,0,0,1-7.84,3.12c.27-1,.46-1.87.59-2.59a51.23,51.23,0,0,0,6.58-2.7Z"/><path d="M180.2,23.07c0,.57,0,1.2-.06,1.85-.33.63-.7,1.26-1.11,1.9-.2.3-.4.6-.62.9.28-1.41.48-2.73.61-3.9.44-.76.83-1.49,1.15-2.19Q180.2,22.29,180.2,23.07Z"/><path d="M180.14,24.92c0,.82-.14,1.7-.27,2.62-.68,1-1.37,1.94-2.05,2.87.23-.93.43-1.82.59-2.69.22-.3.42-.6.62-.9C179.44,26.18,179.81,25.55,180.14,24.92Z"/><path d="M179.87,27.54c-.15,1.13-.37,2.32-.66,3.56-.86,1.14-1.71,2.24-2.55,3.28.46-1.35.84-2.69,1.16-4C178.5,29.48,179.19,28.52,179.87,27.54Z"/><path d="M179,23.82c-.13,1.17-.33,2.49-.61,3.9-.09.15-.19.29-.28.43s-.33.45-.5.67l-.53.67-.53.68-.31.35a3.47,3.47,0,0,1-.32.34c-.11.11-.22.23-.34.34s-.23.21-.35.31-.48.41-.72.61a29.41,29.41,0,0,1-3.2,2.17c-1.13.67-2.31,1.3-3.54,1.91A159.8,159.8,0,0,1,151.39,43c-5.9,2.12-11.55,4-16.67,5.73-4.33,1.47-8.29,2.82-11.72,4.07.34-.51.67-1,1-1.57l.59-1c2.85-1.14,6-2.33,9.41-3.56,5.1-1.85,10.72-3.79,16.59-5.9s11.41-4.22,16.24-6.48c1.21-.57,2.37-1.16,3.46-1.77a26.33,26.33,0,0,0,3-1.92c.23-.17.46-.34.67-.52l.32-.26.29-.27a2.57,2.57,0,0,0,.29-.28l.27-.28c.18-.21.35-.43.53-.63s.35-.42.53-.62.35-.4.5-.61l.93-1.22C178.17,25.19,178.62,24.49,179,23.82Z"/><polygon points="177.31 146.73 176.75 146.77 176.76 146.73 177.31 146.73"/><path d="M177.82,30.41c-.32,1.28-.7,2.62-1.16,4-.33.41-.65.82-1,1.21-2.23,2.73-4.32,5.1-6.12,7.06-3.61,3.91-6,6.15-6.18,6s2-2.65,5.35-6.73c1.68-2,3.68-4.47,5.83-7.23Q176.15,32.67,177.82,30.41Z"/><path d="M176.75,146.77l-.05.56c-.14,1.4-.21,2.77-.23,4.09,0-1.31.07-2.68.2-4.09l.06-.56Z"/><path d="M175.83,178.43l.57.46A20.08,20.08,0,0,1,170,187c-4.08,3.28-12.85,6.18-21.86,6.18a37.71,37.71,0,0,1-6.8-.6h1.42a54,54,0,0,0,8.67-.84h0c7.46-.57,14.31-3,17.72-5.77a18.69,18.69,0,0,0,6-7.68c0-.11.09-.22.13-.31Z"/><path d="M173,233.82l.76-.25c-.13.72-.32,1.6-.59,2.59l-.51.16-.13,0c.05-.54.1-1.07.15-1.57C172.82,234.44,172.93,234.12,173,233.82Z"/><path d="M172.78,233.89l.25-.07c-.1.3-.21.62-.32,1C172.73,234.48,172.76,234.18,172.78,233.89Z"/><path d="M172.78,233.89c0,.29-.05.59-.07.9-.18.52-.38,1.09-.61,1.71l-.53.15c.13-.88.24-1.71.35-2.49l.1,0Z"/><path d="M172.71,234.79c-.05.5-.1,1-.15,1.57l-.46.14C172.33,235.88,172.53,235.31,172.71,234.79Z"/><path d="M171.92,234.16c-.11.78-.22,1.61-.35,2.49a81.09,81.09,0,0,1-17.32,2.87c-.45-.83-.86-1.59-1.24-2.27A81.07,81.07,0,0,0,171.92,234.16Z"/><path d="M170.28,147.76a46.3,46.3,0,0,1-.31,13.37c-1.64,9.21-6.36,14.94-13.64,16.57a23.06,23.06,0,0,1-5.06.6,14.76,14.76,0,0,1-10.1-3.67c-4.81-4.25-7.37-12-7.29-21.63,0,8.49,2.33,15.29,6.6,19.07l.19.16h0a16.61,16.61,0,0,0,1.38,1.4c3.53,3.13,8.24,4.06,14,2.77,6.8-1.53,11.05-6.74,12.62-15.48a46.39,46.39,0,0,0,.38-12.41h-1.71c0-.54-.07-1-.1-1.33h3Z"/><path class="b" d="M169,148.52a46.39,46.39,0,0,1-.38,12.41c-1.57,8.74-5.82,13.95-12.62,15.48-5.75,1.29-10.46.36-14-2.77a16.61,16.61,0,0,1-1.38-1.4,13.43,13.43,0,0,0,9,3.16,21,21,0,0,0,4.58-.54c6.59-1.48,10.92-6.9,12.51-15.65a47.07,47.07,0,0,0,.6-10.69Z"/><path d="M167.33,148.52a47.07,47.07,0,0,1-.6,10.69c-1.59,8.75-5.92,14.17-12.51,15.65a21,21,0,0,1-4.58.54,13.43,13.43,0,0,1-9-3.16h0c-3.55-4.15-5.48-11-5.46-19.09.07,8,2.25,14.49,6.15,17.93,3.18,2.81,7.4,3.65,12.57,2.49,6.12-1.37,10-6.28,11.5-14.59a45.79,45.79,0,0,0,.57-10.45Z"/><path d="M167.33,148.52H166c0-.52-.06-1-.09-1.26v-.07h1.32C167.26,147.53,167.3,148,167.33,148.52Z"/><path class="e" d="M166,148.52a45.79,45.79,0,0,1-.57,10.45c-1.51,8.31-5.38,13.22-11.5,14.59-5.17,1.16-9.39.32-12.57-2.49-3.9-3.44-6.08-9.95-6.15-17.93v-.08c0-1.47.08-3,.22-4.54Z"/><path d="M166,148.52H135.43c-.14,1.55-.21,3.07-.22,4.54,0-1.48.06-3,.19-4.57l30.51-1.23C165.94,147.57,166,148,166,148.52Z"/><path d="M165.91,147.19v.07l-30.51,1.23c-.13,1.57-.2,3.09-.19,4.57v.08c0,8.13,1.91,14.94,5.46,19.09l-.19-.16c-4.27-3.78-6.58-10.58-6.6-19.07,0-1.68.11-3.42.28-5.21l.06-.58.57,0Z"/><path d="M165.33,213.09c.06.21-1.53.81-4.21,1.17a33.21,33.21,0,0,1-10.53-.3,32.3,32.3,0,0,1-5.61-1.6,29.49,29.49,0,0,1-4.28-2.1c-2.31-1.44-3.49-2.63-3.37-2.79s1.54.68,3.9,1.81a38.94,38.94,0,0,0,9.65,3.15,47.22,47.22,0,0,0,10.15.73C163.66,213.09,165.28,212.88,165.33,213.09Z"/><path d="M154.25,239.52l-1.17.07-1-2.3,1,0C153.39,237.93,153.8,238.69,154.25,239.52Z"/><path d="M151.67,108l2.27-.32a33.83,33.83,0,0,1-3.17,2.41l-.29,0-1.4.11c-.94.09-1.87.14-2.78.17.67-.31,1.31-.65,1.94-1s1.35-.8,2-1.23h.06C150.75,108.1,151.21,108.06,151.67,108Z"/><path d="M153.08,239.59l-1.13,0-2.31.06c.34-.86.65-1.65.92-2.36l1.3,0H152Z"/><path d="M150.48,110.1l.29,0q-.77.51-1.56,1a33,33,0,0,1-3.72,1.84,39.24,39.24,0,0,1-4,1.39,58.82,58.82,0,0,1-8.67,1.66c-3,.36-6,.58-9.16.71-1.57.06-3.14.1-4.74.13l-2.39,0-2.4,0c-6.42.12-13.07.49-19.87,1.09s-13.41,1.42-19.78,2.33q-2.75.39-5.43.82c-.25-.64-.5-1.27-.75-1.87l.12-.32c1.89-.31,3.79-.61,5.72-.9,6.41-1,13.07-1.77,19.91-2.39s13.56-1,20-1.06l2.42,0,2.38,0c1.58,0,3.14-.05,4.68-.11,3.08-.1,6.09-.29,9-.61a57.57,57.57,0,0,0,8.36-1.5,38.15,38.15,0,0,0,3.83-1.26c.54-.21,1.06-.44,1.57-.68.91,0,1.84-.08,2.78-.17Z"/><path d="M149.67,237.36l.89,0c-.27.71-.58,1.5-.92,2.36h-1.1C149,238.85,149.32,238.06,149.67,237.36Z"/><path d="M148.92,108.28l1.31-.13c-.64.43-1.3.84-2,1.23s-1.27.69-1.94,1l-2.57.08c-.86,0-1.7,0-2.52,0H140l-1.19-.07c-.79,0-1.55-.07-2.3-.13l-2.18-.21c-.7,0-1.39-.17-2.05-.25s-1.3-.17-1.92-.29l-1.78-.33c-.57-.11-1.11-.24-1.63-.36l-.77-.17-.72-.2c-.47-.13-.93-.24-1.35-.37a31.52,31.52,0,0,1-3.81-1.38c-.84-.39-1.25-.66-1.22-.73s.5,0,1.38.29,2.19.58,3.88.94l1.34.26.72.14.77.13,1.62.26,1.76.22c.61.09,1.24.13,1.89.2s1.33.13,2,.16l2.14.12c.74,0,1.49,0,2.26,0l1.17,0,1.2,0c.81,0,1.63,0,2.47-.06C145.37,108.54,147.12,108.49,148.92,108.28Z"/><path d="M144.11,191.69a38.84,38.84,0,0,0,7.31.09,54,54,0,0,1-8.67.84h-1.42a30.22,30.22,0,0,1-4.73-1.26,13.46,13.46,0,0,1-2.18-1,20.38,20.38,0,0,0,8.31,1.4Z"/><path d="M131.37,236.15a110.79,110.79,0,0,0,18.3,1.21c-.35.7-.72,1.49-1.13,2.35A111.27,111.27,0,0,1,131,238.42c-3.19-.49-6.31-1.1-9.33-1.83-.87-1-1.62-2-2.26-2.86A112.87,112.87,0,0,0,131.37,236.15Z"/><path d="M148.5,52.81a2.41,2.41,0,0,1,.06,1.28,12.28,12.28,0,0,1-1,3.54,21.25,21.25,0,0,1-3.06,4.93l-.54.67c-.18.23-.39.44-.6.66s-.41.45-.62.68a8.45,8.45,0,0,1-.66.68l-1.43,1.36c-.24.24-.52.45-.78.67l-.81.68-.83.68c-.29.23-.59.44-.89.66l-1.83,1.34-2,1.3-1,.66c-.35.2-.71.43-1.07.63-2.92,1.65-6.14,3.13-9.54,4.64-6.81,3-14.36,6.11-22.08,9.77-3.86,1.82-7.58,3.7-11.09,5.67a109.21,109.21,0,0,0-9.82,6.12A69.91,69.91,0,0,0,70.82,106q-1.77,1.69-3.26,3.41c-.82,1-1.58,1.92-2.27,2.86-.19-.42-.37-.82-.54-1.18.58-.81,1.22-1.63,1.89-2.46,1-1.19,2.09-2.37,3.28-3.56a69.09,69.09,0,0,1,8.16-6.82A107.05,107.05,0,0,1,88,92c3.54-2,7.29-3.91,11.17-5.74,7.78-3.68,15.37-6.74,22.17-9.67,3.4-1.47,6.62-2.9,9.49-4.46.36-.19.7-.4,1.05-.6l1-.62,2-1.23,1.83-1.28c.3-.21.6-.41.88-.62l.83-.65.81-.64a9.68,9.68,0,0,0,.77-.64c.5-.44,1-.86,1.44-1.28.24-.2.45-.43.66-.64l.63-.64c.21-.21.42-.41.61-.62l.54-.64A22.13,22.13,0,0,0,147,57.37,14.84,14.84,0,0,0,148.25,54C148.43,53.25,148.45,52.82,148.5,52.81Z"/><path d="M144.11,191.69l-1.38.05a20.38,20.38,0,0,1-8.31-1.4c-4-2.33-7.4-6.93-9.85-13.48a57.66,57.66,0,0,1-2.77-10.48l-.91.05c0-.53-.07-1-.08-1.32L123,165l.08.61c0,.2,2.8,20.48,14,24.51A30.71,30.71,0,0,0,144.11,191.69Z"/><path d="M136.6,191.36a30.22,30.22,0,0,0,4.73,1.26,18.85,18.85,0,0,1-13.13-5.34c-6.44-6.31-7.88-16.35-8.21-20.8l.9,0c.34,4.34,1.78,14.2,7.93,20.22a17.16,17.16,0,0,0,5.6,3.69A13.46,13.46,0,0,0,136.6,191.36Z"/><polygon points="134.79 147.19 134.22 147.21 134.22 147.19 134.79 147.19"/><path d="M134.22,147.21l-.06.58c-.17,1.79-.27,3.53-.28,5.21a49.24,49.24,0,0,1,.26-5.21l.05-.57Z"/><path d="M132.75,194.64c.38.05.58.15.58.26s-.19.21-.5.35a7.38,7.38,0,0,0-1.2.6,2.82,2.82,0,0,0-1.13,1.31,3.27,3.27,0,0,0-.23,1,3.72,3.72,0,0,0,0,.58h0l-1.49-.89a4.09,4.09,0,0,1,.44-1.33,3.44,3.44,0,0,1,.9-1.08,3.79,3.79,0,0,1,2.64-.8Z"/><path d="M131.58,203.69c.5,1.08.89,1.74.73,1.89s-.86-.28-1.67-1.31a9.49,9.49,0,0,1-1.17-2,9.63,9.63,0,0,1-.72-2.76c0-.19,0-.37,0-.55.53.36,1.1.74,1.69,1.12A14.51,14.51,0,0,0,131.58,203.69Z"/><path d="M132.48,28.75c-.1.76-.23,1.56-.4,2.4a34.29,34.29,0,0,1-2.19,3c.31-1,.59-1.94.83-2.84.4-.52.76-1,1.08-1.51S132.27,29.11,132.48,28.75Z"/><path class="b" d="M134.42,190.34a17.16,17.16,0,0,1-5.6-3.69c-6.15-6-7.59-15.88-7.93-20.22l.91-.05a57.66,57.66,0,0,0,2.77,10.48C127,183.41,130.4,188,134.42,190.34Z"/><path d="M132.08,31.15c-.28,1.36-.65,2.82-1.11,4.36a68.21,68.21,0,0,1-3,8.06,65.18,65.18,0,0,1-3.4,6.64l-2.22.9.39-.67a75.81,75.81,0,0,0,3.8-7.5c1.21-2.73,2.22-5.4,3-7.86.1-.3.2-.6.29-.89A34.29,34.29,0,0,0,132.08,31.15Z"/><path d="M130.3,199.37c0,.24.06.49.1.73-.59-.38-1.16-.76-1.69-1.12,0-.07,0-.14,0-.22a5.11,5.11,0,0,1,.05-.78l0-.13,1.49.89C130.26,198.93,130.29,199.15,130.3,199.37Z"/><path d="M130.72,31.35c-.24.9-.52,1.85-.83,2.84-.73.9-1.55,1.83-2.46,2.78a80.26,80.26,0,0,1-8.29,7.37l-1.26.95-1.32.9c-.45.32-.91.61-1.37.9s-.93.61-1.42.89c-1.92,1.16-4,2.28-6.11,3.4-4.28,2.21-9,4.37-13.88,6.55s-10.13,4.41-15.47,6.79q-4,1.77-8.1,3.71c-2.73,1.29-5.46,2.64-8.19,4.09s-5.37,3-7.89,4.56A73,73,0,0,0,47,82.2c-.54.46-1.11.9-1.62,1.39-.26.24-.52.48-.79.71l-.39.36-.37.37A34.86,34.86,0,0,0,41,88.09a38,38,0,0,0-4.36,6.74,38.34,38.34,0,0,0-4,14.24,30.28,30.28,0,0,0,.21,6.7,19.32,19.32,0,0,0,1.74,5.84,11.09,11.09,0,0,0,1.53,2.3l.22.25.24.22a6.42,6.42,0,0,0,.48.43,7.31,7.31,0,0,0,.89.6v.06l-.65.2q-.48.14-.93.3l-.21.07,0,0c-.2-.16-.41-.32-.6-.5l-.29-.26L35,125a12.22,12.22,0,0,1-1.83-2.59,20.32,20.32,0,0,1-2.06-6.32,32.11,32.11,0,0,1-.37-7.12,39.57,39.57,0,0,1,4-15.08,38.88,38.88,0,0,1,4.54-7.17,41,41,0,0,1,2.93-3.27l.4-.4.4-.37.82-.75c.54-.52,1.12-1,1.69-1.47a76.26,76.26,0,0,1,7.36-5.32c2.58-1.65,5.28-3.17,8-4.65s5.54-2.84,8.29-4.14,5.48-2.52,8.17-3.7C82.76,60.26,88,58.08,92.92,56s9.6-4.19,13.86-6.3c2.13-1.07,4.17-2.12,6.07-3.23.48-.26.94-.56,1.4-.83s.92-.55,1.36-.84l1.3-.85,1.24-.88a87.41,87.41,0,0,0,8.35-7A40.77,40.77,0,0,0,130.72,31.35Z"/><polygon points="124.76 120.18 123.56 119.99 123.56 120.34 122.74 119.66 122.24 119.66 122.24 118.77 123.06 118.77 124.76 120.18"/><path d="M124.6,50.21l-.59,1c-.34.54-.67,1.06-1,1.57l-1.82.67-.28.1c.48-.75,1-1.56,1.48-2.41Z"/><path d="M123.56,120.34V142.7H97.17v4.76h5.17v.09l-.36,0s-2.1.07-6.14.63v-6.82h26.4V119.66h.5Z"/><path class="b" d="M122.24,119.66v21.72H95.84v6.82l-1.1.15v-8h26.68V119.66Z"/><path d="M122.24,118.77v.89h-.82v20.68H94.74v8l-.88.13v-9h26.68V118.77Z"/><polygon points="122.07 147.46 122.07 161.3 106.14 161.85 106.14 160.52 120.75 160.01 120.75 148.78 119.42 148.78 119.42 147.46 122.07 147.46"/><path d="M122.38,51.11c-.5.85-1,1.66-1.48,2.41-3.69,1.38-6.62,2.63-8.59,3.61s-3,1.74-3.17,1.6.76-1.12,2.71-2.39a60.52,60.52,0,0,1,8.71-4.46Z"/><path d="M120.89,166.43l-.9,0c0-.52-.06-1-.07-1.32l.89,0C120.82,165.46,120.85,165.9,120.89,166.43Z"/><path d="M121.7,236.59l-1.66-.41c-.72-1-1.32-2-1.82-2.79l1.22.34C120.08,234.59,120.83,235.55,121.7,236.59Z"/><polygon class="b" points="120.75 148.78 120.75 160.01 106.14 160.52 105.26 160.55 103.22 160.62 102.34 160.65 96.11 160.87 96.11 161.24 96.11 162.12 96.11 166.7 94.74 166.78 94.74 162.15 94.74 161.27 94.74 159.08 102.34 158.84 103.22 158.81 105.26 158.74 106.14 158.72 119.42 158.28 119.42 148.78 120.75 148.78"/><path d="M120,166.48l-23.88,1.33v-.22l.78-.05,1.94-1-.11-.2,21.2-1.18C119.93,165.51,120,166,120,166.48Z"/><polygon points="119.42 148.78 119.42 158.28 106.14 158.72 106.14 157.83 118.54 157.43 118.54 148.78 119.42 148.78"/><rect x="118.54" y="147.46" width="0.88" height="1.33"/><path d="M120,236.18l-1.63-.44-.48-.78c-.42-.69-.84-1.36-1.24-2l1.53.43C118.72,234.22,119.32,235.16,120,236.18Z"/><polygon class="b" points="118.54 148.78 118.54 157.43 106.14 157.83 106.14 148.78 118.54 148.78"/><polygon points="118.54 147.46 118.54 148.78 106.14 148.78 106.14 148.19 117.6 147.46 118.54 147.46"/><path d="M117.93,235l.48.78c-.52-.14-1-.29-1.56-.45l-1.6-2.77,1.44.44C117.09,233.6,117.51,234.27,117.93,235Z"/><polygon points="117.6 147.46 106.14 148.19 106.14 147.46 117.6 147.46"/><path d="M117.05,82.94a.17.17,0,0,1,0,.14,1.31,1.31,0,0,1-.31.49,11,11,0,0,1-1.59,1.34,70.45,70.45,0,0,1-6.44,4c-2.77,1.57-6.14,3.31-9.85,5.25S91.11,98.21,87,100.71a71.89,71.89,0,0,0-10.91,7.92,36.85,36.85,0,0,0-4,4.23,26.45,26.45,0,0,0-2.79,4.22,17.25,17.25,0,0,0-.88,1.86l-.24,0-.44-1.08a13.34,13.34,0,0,1,.57-1.31A25.6,25.6,0,0,1,71,112.06a37.25,37.25,0,0,1,4.08-4.49,67.16,67.16,0,0,1,11.08-8.19c4.17-2.54,8.29-4.67,12-6.55s7.16-3.5,10-4.93,5.1-2.62,6.62-3.5c.77-.44,1.35-.8,1.72-1.06a1.9,1.9,0,0,0,.37-.32.15.15,0,0,0,0-.12h0A.15.15,0,0,1,117.05,82.94Z"/><path d="M115.25,232.52l1.6,2.77c-1.63-.47-3.22-1-4.78-1.53a79.83,79.83,0,0,1-8.42-3.51l-.4-.2c-.14-.87-.28-1.71-.43-2.5l1.72.85a78.22,78.22,0,0,0,8.24,3.32C113.59,232,114.41,232.26,115.25,232.52Z"/><polygon points="106.14 160.52 106.14 161.85 105.26 161.88 105.26 160.55 106.14 160.52"/><polygon points="106.14 157.83 106.14 158.72 105.26 158.74 105.26 157.86 106.14 157.83"/><polygon points="106.14 148.78 106.14 157.83 105.26 157.86 105.26 148.78 106.14 148.78"/><polygon points="106.14 148.19 106.14 148.78 105.26 148.78 105.26 148.25 106.14 148.19"/><polygon points="106.14 147.46 106.14 148.19 105.26 148.25 105.26 147.46 106.14 147.46"/><path d="M105.26,160.55v1.33l-1.34,0,0-.85h-.68v-.46Z"/><polygon points="105.26 157.86 105.26 158.74 103.22 158.81 103.22 157.92 105.26 157.86"/><polygon class="b" points="105.26 148.78 105.26 157.86 103.22 157.92 103.22 148.78 105.26 148.78"/><polygon points="105.26 148.25 105.26 148.78 103.22 148.78 103.22 148.38 105.26 148.25"/><polygon points="105.26 147.46 105.26 148.25 103.22 148.38 103.22 147.5 103.77 147.46 105.26 147.46"/><path d="M103.92,161.92v0l-.7,0v0Z"/><path d="M103.9,161.07l0,.85-.7,0v-.87Z"/><polygon points="103.77 147.46 103.22 147.5 103.22 147.46 103.77 147.46"/><path d="M103.22,162v0h-.88Z"/><path d="M103.22,161.08V162l-.88,0v-.88Z"/><path d="M103.22,160.62v.46l-.88,0v-.45Z"/><polygon points="103.22 157.92 103.22 158.81 102.34 158.84 102.34 157.95 103.22 157.92"/><polygon points="103.22 148.78 103.22 157.92 102.34 157.95 102.34 148.78 103.22 148.78"/><polygon points="103.22 148.38 103.22 148.78 102.34 148.78 102.34 148.44 103.22 148.38"/><polygon points="103.22 147.5 103.22 148.38 102.34 148.44 102.34 147.55 103.22 147.5"/><polygon points="103.22 147.46 103.22 147.5 102.34 147.55 102.34 147.46 103.22 147.46"/><path d="M102.82,227.55c.15.79.29,1.63.43,2.5l-.74-.37c-.12-.87-.24-1.7-.36-2.48Z"/><path d="M102.34,162h0l-.46,0Z"/><path d="M102.34,161.1V162l-.46,0-5.77.12v-.88Z"/><path d="M102.34,160.65v.45l-6.23.14v-.37Z"/><path d="M102.34,158v.89l-7.6.24v2.19h-.88v-3.05Z"/><path class="b" d="M102.34,148.79V158l-8.48.28v3.05l-18.34.41-1.57,0c-9.29.21-17,.38-17.09.41-.3.05-.44.07-1.24,2.75-.4,0-.81,0-1.22,0s-1,.05-1.54.11-.79.11-1.18.19c-.57.1-1.14.24-1.71.4l-.57.16-.27.1a21.92,21.92,0,0,1,1.28-3l0,0c.34-.63.67-1.16,1-1.61a10.36,10.36,0,0,1,1.88-2.32c1.08-.29,12.48-3.32,22.55-5.75l1.64-.4c3.29-.78,6.35-1.48,8.77-2q4.42-.88,7.62-1.36l.88-.13c1.35-.2,2.51-.35,3.49-.46Z"/><path d="M102.34,148.44v.35H98.23c2.49-.29,3.76-.33,3.79-.33Z"/><path d="M102.34,147.55v.89l-.32,0s-1.3,0-3.79.33H95.84v-.59c4-.56,6.11-.63,6.14-.63Z"/><path d="M102.15,227.2c.12.78.24,1.61.36,2.48-.94-.48-1.85-1-2.73-1.5l-.93-.54c-.31-.18-.6-.38-.9-.57l-.89-.58c-.3-.19-.6-.38-.88-.58l-.32-.24,1-.44,1.11-.49.18.11c.28.19.57.37.86.55s.58.37.88.54l.91.5C101.22,226.7,101.68,227,102.15,227.2Z"/><path d="M101.88,162l-4.45.15v4.12l-.78.4-.54,0v-4.58Z"/><polygon points="98.72 166.34 98.83 166.54 96.89 167.54 96.11 167.59 96.11 166.7 96.65 166.67 97.43 166.27 97.43 166.41 98.72 166.34"/><path d="M95.84,148.79h2.39c-1,.11-2.14.26-3.49.46v-.9l1.1-.15Z"/><path d="M97.28,224.3a7.74,7.74,0,0,0,.67.44l-1.11.49-1,.44-1.36-1-.21-.17c.64-.29,1.27-.57,1.89-.82a.94.94,0,0,1,.15-.06Z"/><path d="M95.63,223.16l.7.49a.94.94,0,0,0-.15.06c-.62.25-1.25.53-1.89.82l-1.39-1.09-.4-.32-.38-.33-.75-.65-.74-.64-.71-.68c-1-.88-1.82-1.8-2.67-2.7L86,216.74c-.4-.46-.77-.93-1.15-1.39A56.26,56.26,0,0,1,81,209.83l-.76-1.27a12,12,0,0,0,.66-1.71c.43.72.88,1.45,1.36,2.19a56,56,0,0,0,3.9,5.26c.37.44.74.89,1.13,1.32l1.21,1.32c.84.85,1.7,1.73,2.63,2.56l.7.64.72.61.74.62.37.31.39.29C94.58,222.37,95.11,222.76,95.63,223.16Z"/><polygon points="96.11 166.7 96.11 167.59 94.74 167.66 94.74 166.78 96.11 166.7"/><polygon points="94.74 166.78 94.74 167.66 93.86 167.71 93.86 166.83 94.74 166.78"/><path d="M94.74,162.15v4.63l-.88.05v-4.66Z"/><path d="M94.74,161.27v.88l-.88,0v-.89Z"/><path d="M94.74,148.35v.9l-.88.13v-.9Z"/><path d="M93.86,161.28v.89l-18.52.41.18-.89Z"/><path d="M93.86,148.48v.9q-3.19.48-7.62,1.36c-2.42.49-5.48,1.19-8.77,2,.07-.32.15-.64.22-1,3.13-.74,6-1.4,8.38-1.87C89.09,149.26,91.69,148.82,93.86,148.48Z"/><path d="M80.92,206.85a12,12,0,0,1-.66,1.71c-.32-.57-.64-1.14-.93-1.7a11.84,11.84,0,0,0,.56-1.82C80.22,205.63,80.56,206.23,80.92,206.85Z"/><path d="M79.32,204l.57,1.06a11.84,11.84,0,0,1-.56,1.82c-.42-.78-.81-1.55-1.18-2.3-.8-1.69-1.47-3.3-2-4.8s-1-2.89-1.37-4.16a45.66,45.66,0,0,1-1.29-5.9,6.07,6.07,0,0,1-.11-2.11,8.74,8.74,0,0,1,.58,2c.33,1.32.86,3.27,1.69,5.72.43,1.22.93,2.57,1.54,4S78.49,202.35,79.32,204Z"/><path d="M79.33,206.86c.29.56.61,1.13.93,1.7a14.13,14.13,0,0,1-1.13,2,16.35,16.35,0,0,1-3,3.34,10.09,10.09,0,0,1-1,.73c-.16.12-.34.22-.52.33l-.53.32a12.58,12.58,0,0,1-2.35,1,13.79,13.79,0,0,1-5.3.56,19.85,19.85,0,0,1-5.4-1.28,35.53,35.53,0,0,1-9.92-6.12,58.06,58.06,0,0,1-4.44-4.19c-.36-.36-.72-.77-1.07-1.17s-.68-.82-1-1.24a26.91,26.91,0,0,1-1.81-2.69,31.21,31.21,0,0,1-4.1-11.86,27.8,27.8,0,0,1,.82-11.69,19.53,19.53,0,0,1,2.35-5,15.07,15.07,0,0,1,3.66-3.84c.18-.12.34-.26.53-.37l.55-.32a6.05,6.05,0,0,1,.55-.32l.56-.27.36-.17c-.29.85-.57,1.74-.82,2.6l-.13.08a4.7,4.7,0,0,0-.44.34,12.64,12.64,0,0,0-3.09,3.4,17.54,17.54,0,0,0-2,4.53A26,26,0,0,0,41,188a29.38,29.38,0,0,0,3.83,11,24.76,24.76,0,0,0,1.66,2.47c.3.38.59.78.92,1.13s.64.74,1,1.09a55.72,55.72,0,0,0,4.25,4.06,34.16,34.16,0,0,0,9.21,5.85,18.67,18.67,0,0,0,4.81,1.25,12,12,0,0,0,4.55-.38,10.47,10.47,0,0,0,2-.79l.47-.27a3,3,0,0,0,.45-.27c.29-.2.59-.38.86-.6a15,15,0,0,0,2.81-2.89A12.46,12.46,0,0,0,79.33,206.86Z"/><path d="M78.78,147c-.1.41-.2.84-.29,1.27-.29-.51-.61-1.1-.95-1.75.14-.51.28-1,.42-1.49C78.25,145.78,78.53,146.44,78.78,147Z"/><path d="M77.71,144.45l.25.61c-.14.48-.28,1-.42,1.49q-.41-.77-.84-1.65c-.91-1.86-1.92-4.1-2.93-6.64-.26-.63-.5-1.29-.76-2l-.74-2.06c-.49-1.38-1-2.82-1.55-4.29-1.11-3-2.19-6-3.15-8.58v0l1.44-.22c1,2.53,2.09,5.33,3.18,8.29.54,1.47,1,2.92,1.52,4.33.24.69.48,1.38.7,2.05l.7,1.95C76,140.29,76.93,142.55,77.71,144.45Z"/><path d="M78.49,148.3c-.26,1.09-.53,2.25-.8,3.45l-1.63.39c.5-2,1-3.88,1.48-5.59C77.88,147.2,78.2,147.79,78.49,148.3Z"/><path d="M77.69,151.75c-.07.32-.15.64-.22,1l-1.64.4c.07-.33.15-.65.23-1Z"/><path class="c" d="M76.7,144.9q.43.89.84,1.65c-.48,1.71-1,3.58-1.48,5.59C65.44,154.7,53.14,158,53,158l-.06,0-.06,0a8.59,8.59,0,0,0-1.85,2.1c-.78-2-1.69-4.24-2.68-6.74-1.12-2.83-2.34-5.95-3.54-9.23s-2.22-6.47-3.12-9.36c-.43-1.45-.84-2.82-1.16-4.12-.17-.65-.31-1.27-.45-1.88-.07-.3-.12-.59-.18-.88s-.08-.36-.11-.53c.2,0,.41,0,.61,0a7.73,7.73,0,0,0,2.68-.47,37.82,37.82,0,0,0,4.68-1.92c1.34-.29,2.71-.59,4.1-.86l2.13-.44,2.17-.41,3.25-.61.78-.14q3.21-.59,6.53-1.12l.88-.14h0c1,2.62,2,5.53,3.15,8.58.54,1.47,1.06,2.91,1.55,4.29L73,136.3c.26.67.5,1.33.76,2C74.78,140.8,75.79,143,76.7,144.9Z"/><path d="M76.06,152.14c-.08.32-.16.64-.23,1-10.07,2.43-21.47,5.46-22.55,5.75a10.36,10.36,0,0,0-1.88,2.32c0-.07,0-.14-.08-.22l-.32-.78a8.59,8.59,0,0,1,1.85-2.1l.06,0,.06,0C53.14,158,65.44,154.7,76.06,152.14Z"/><path d="M75.52,161.69l-.18.89-1.56,0c0-.3.11-.59.17-.89Z"/><path d="M75.34,162.58c-.28,1.44-.53,2.83-.74,4.16-.41,2.57-.68,4.91-.84,6.87-.36,3.94-.2,6.37-.41,6.41s-.31-.59-.46-1.71a32.87,32.87,0,0,1-.24-4.75,62.87,62.87,0,0,1,.53-7c.16-1.25.36-2.56.6-3.91Z"/><path d="M74,161.73c-.06.3-.12.59-.17.89-8.49.19-15.32.34-16.6.39a20.06,20.06,0,0,0-.65,2c-.3,0-.6-.06-.91-.07.8-2.68.94-2.7,1.24-2.75C57,162.11,64.66,161.94,74,161.73Z"/><path d="M69,121.13l-1.44.22c0-.13.07-.27.11-.41.17-.53.36-1.09.58-1.68C68.51,119.86,68.76,120.49,69,121.13Z"/><path d="M68.52,173c.4.71.53,1.13.46,1.17s-.34-.29-.85-.9a23.36,23.36,0,0,0-2.38-2.51,17.52,17.52,0,0,0-4.46-3,14,14,0,0,0-5.22-1.25c.16-.56.31-1.08.46-1.55a15,15,0,0,1,5.34,1.62,16.88,16.88,0,0,1,4.52,3.51A15.9,15.9,0,0,1,68.52,173Z"/><path d="M68.14,119l.24,0-.12.32Z"/><path d="M68.14,119l.12.28c-.22.59-.41,1.15-.58,1.68,0,.14-.07.28-.11.41h0c-.18-.49-.35-1-.53-1.43.08-.27.15-.53.24-.81Z"/><path d="M68.14,119l-.86.14c.12-.4.26-.81.42-1.22Z"/><path d="M67.57,121.35v0h0Z"/><path d="M67.57,121.36l-.88.14c0-.25.09-.51.15-.77s.13-.53.2-.8C67.22,120.39,67.39,120.87,67.57,121.36Z"/><path d="M66.78,119.2l.5-.08c-.09.28-.16.54-.24.81C67,119.68,66.87,119.44,66.78,119.2Z"/><path d="M67,119.93c-.07.27-.14.54-.2.8s-.1.52-.15.77q-3.31.54-6.53,1.12c.21-.75.47-1.54.78-2.38,1.92-.36,3.87-.7,5.84-1C66.87,119.44,67,119.68,67,119.93Z"/><path d="M65.29,112.28l-.4.57-.25.35c-.16-.47-.31-.91-.44-1.31.18-.26.36-.53.55-.79C64.92,111.46,65.1,111.86,65.29,112.28Z"/><path d="M64.2,111.89c.13.4.28.84.44,1.31a34.64,34.64,0,0,0-3.35,6.18c-.13.29-.24.58-.35.86l-.93.18c.14-.44.29-.9.46-1.36a33.84,33.84,0,0,1,3.5-6.83Z"/><path d="M60,120.42l.93-.18c-.31.84-.57,1.63-.78,2.38l-.78.14C59.55,122,59.75,121.24,60,120.42Z"/><path d="M60,120.42c-.26.82-.46,1.61-.63,2.34l-3.25.61-2.17.41-2.13.44c-1.39.27-2.76.57-4.1.86a23.2,23.2,0,0,0,2.92-1.7,12.22,12.22,0,0,0,1.82-1.46l1.07-.22c.72-.16,1.44-.3,2.17-.45Z"/><path d="M56.53,165c-.15.47-.3,1-.46,1.55-.3,0-.61,0-.92,0,.18-.62.34-1.15.47-1.61C55.93,164.9,56.23,164.93,56.53,165Z"/><path d="M54.4,164.88c.41,0,.82,0,1.22,0-.13.46-.29,1-.47,1.61-.22,0-.45,0-.67,0s-.69.06-1,.11c-.15-.45-.34-1-.58-1.65C53.38,164.93,53.89,164.89,54.4,164.88Z"/><path d="M54.58,117.61s.1.16.09.49a4.12,4.12,0,0,1-.35,1.37,8.06,8.06,0,0,1-1.3,1.9c-.17.18-.35.37-.55.55l-1.07.23-.74.16a15.42,15.42,0,0,0,1.87-1.43,8.76,8.76,0,0,0,1.37-1.63,5.84,5.84,0,0,0,.54-1.19C54.52,117.77,54.54,117.62,54.58,117.61Z"/><path d="M53.44,166.64c-.28,0-.55.08-.83.13-.27-.43-.58-1-.93-1.59.39-.08.79-.14,1.18-.19C53.1,165.63,53.29,166.19,53.44,166.64Z"/><path d="M51.4,122.15l1.07-.23a12.22,12.22,0,0,1-1.82,1.46,23.2,23.2,0,0,1-2.92,1.7h-.07c-2.73.6-5.39,1.21-7.91,1.88l-.07,0c0-.24-.07-.46-.11-.68s0-.23,0-.34a6.47,6.47,0,0,0,.87.11,6.6,6.6,0,0,0,2.25-.33,33.56,33.56,0,0,0,7.51-3.13l.5-.31Z"/><path d="M51.68,165.18c.35.62.66,1.16.93,1.59a17.5,17.5,0,0,0-2.13.54c-.17.06-.34.1-.5.17l-.5.19-.49.19-.48.25-.15.07c.24-.79.5-1.59.77-2.34l.27-.1.57-.16C50.54,165.42,51.11,165.28,51.68,165.18Z"/><path d="M51.32,161c0,.08,0,.15.08.22-.29.45-.62,1-1,1.61l0,0-.48-.94c.39-.68.75-1.24,1.07-1.71Z"/><path d="M51,160.18c-.32.47-.68,1-1.07,1.71l-.12-.25c-1.05-2.07-2.24-4.56-3.48-7.37s-2.53-5.92-3.75-9.27c-.15-.41-.3-.83-.44-1.24s-.29-.83-.42-1.25-.28-.82-.41-1.22-.25-.81-.38-1.21c-.5-1.6-.94-3.15-1.34-4.64s-.73-2.93-1-4.29c-.14-.68-.24-1.34-.34-2-.05-.32-.08-.64-.12-1s-.06-.53-.08-.79l.63-.18a6.52,6.52,0,0,0,1.06.18c0,.17.07.35.11.53s.11.58.18.88c.14.61.28,1.23.45,1.88.32,1.3.73,2.67,1.16,4.12.9,2.89,1.93,6.08,3.12,9.36s2.42,6.4,3.54,9.23C49.31,155.94,50.22,158.21,51,160.18Z"/><path d="M49.93,161.89l.48.94a21.92,21.92,0,0,0-1.28,3l-.3.11-.58.21-.2.09a25.34,25.34,0,0,1,1.61-3.89Z"/><path d="M48.83,166l.3-.11c-.27.75-.53,1.55-.77,2.34l-.33.17-.47.29-.33.21c.25-.86.53-1.75.82-2.6l.2-.09Z"/><path d="M47.66,125.09h.07A37.82,37.82,0,0,1,43.05,127a7.73,7.73,0,0,1-2.68.47c-.2,0-.41,0-.61,0,0-.11,0-.21,0-.32l0-.13.07,0C42.27,126.3,44.93,125.69,47.66,125.09Z"/><path d="M39.71,127.12c0,.11,0,.21,0,.32a6.52,6.52,0,0,1-1.06-.18l1-.27Z"/><path d="M39.68,127l-1,.27a4.88,4.88,0,0,1-.65-.2c0-.21,0-.41,0-.6s0-.57,0-.84a.76.76,0,0,1,0-.15l.08,0,.07,0a4.87,4.87,0,0,0,1.4.49c0,.11,0,.22,0,.34S39.64,126.75,39.68,127Z"/><path d="M39.47,125.54l.06.43a4.87,4.87,0,0,1-1.4-.49l-.07,0,1.18-.36.18,0C39.43,125.2,39.45,125.37,39.47,125.54Z"/><path d="M38.7,127.26l-.63.18a.49.49,0,0,0,0-.12c0-.09,0-.17,0-.26A4.88,4.88,0,0,0,38.7,127.26Z"/><path d="M38.06,125.45l-.08,0v-.06Z"/><path d="M38,126.46c0,.19,0,.39,0,.6a5.72,5.72,0,0,1-.57-.24,7.38,7.38,0,0,1-1.29-.78l.21-.07q.45-.16.93-.3l.65-.2a.76.76,0,0,0,0,.15C38,125.89,38,126.17,38,126.46Z"/><path class="f" d="M188.51,12.23s10.06,22.05-.7,40.52S160.74,75.5,160.74,75.5a35.22,35.22,0,0,0,21.5-2s1.94,11.7-22.28,16-39.68-.5-47.62,3.54c0,0,13.45-9.47,29-8.85,0,0-10.09-3.72-17.77-.46a54,54,0,0,0,22-13.19C155.62,60.51,151,47.26,151,47.26a31.22,31.22,0,0,1-8.32,16c-7.17,7.38-23.24,13.49-42.41,22s-25.2,9-33.59,19.6c0,0-.69-10.19,19-18,0,0-23.62,5.46-29.6,19,0,0,1.7-18.09,29.6-31.59,0,0-18.34,4.35-29.6,18.93A26.57,26.57,0,0,1,63.53,81.6S41.41,89.72,38.37,109c0,0-1.81-7.06,5.33-18.4S58.31,73.54,58.31,73.54,37.82,83.79,33.63,100.08s.57,22.23,1.17,22.54a32.28,32.28,0,0,1,3.2,3.84l.7.8s6.26,19.93,8,24,4,9.78,4,9.78l1.81-2.68,24.29-5.69,1.2-5.64-9.9-27.27s16.42-2.39,27.78-3.21,33.91-.9,43.64-3.21,11.12-4.2,11.12-4.2,8.35-.71,20-5.58S193.47,91,200.77,75.5s0-26.84,0-26.84-1-14.4-3.25-20.28S188.51,12.23,188.51,12.23Z"/><path class="f" d="M209.24,76.42s-7.92,1.78-11.91,10.94A19.07,19.07,0,0,1,204,82.78s-7.48,6.59-8.93,16.45c0,0,4.15-9.48,6-10.6S203,87.12,203,87.12s-4.6,10.6-4.08,22.06a104.7,104.7,0,0,1-1.44,21.71l-1.36,1.39s-3.36-19.34-4.83-22.2-7.77-13.52-7.77-13.52l12.35-13.63,2.94-3.51S204.66,76.57,209.24,76.42Z"/><polygon class="f" points="68.7 124.45 47.23 129.88 70.26 126.99 49.13 133.93 72.12 132.21 54.24 138.81 73.36 136.01 52.87 146.1 74.65 140.4 60.95 148.12 77.54 144.03 68.7 124.45"/><path class="g" d="M54.93,76.58s9.53-6.24,24.95-11,34.43-13.91,41-19.35,10.28-13.75,10.28-13.75-5.66,7.57-21.32,17.73S59.87,68.13,54.93,76.58Z"/><path class="g" d="M109.63,58.56a80,80,0,0,1,16.19-5.45c9.57-2.17,31-8.35,39.21-12.57a45.85,45.85,0,0,0,12.49-9L163.38,48.65s11.54-8.32,18.11-17.11S189.58,15,189.58,15l-1.52-1.75a106.82,106.82,0,0,1-6.37,13c-2.95,4.66-3.42,4.7-3.42,4.7l.14-6s.28,5.37-11.56,10.55S138,45.6,126.23,50.21s-17.09,8.52-17.09,8.52"/><path class="g" d="M148.5,52.81s-3,10.08-19.16,17.32S79.2,91.73,72.76,102.45A158,158,0,0,1,97.11,87.67C110.25,81.41,128,75,137.77,68.51S148.5,52.81,148.5,52.81Z"/><path class="f" d="M52.61,165.88s2-4.43,2.7-4.8,36.31-2.34,36.31-2.34v-2.37l6.94-.39.27-7.68,7.07-.18-.2,9.83-11.4.76-.11,2.9L63,162.17l-6.11.45-.84,3.13-3.46.24"/><polyline class="f" points="102.78 154.05 115.85 154.05 115.85 148.52 118.98 148.52 118.98 157.95 102.34 158.38 102.78 153.75"/><polygon class="h" points="93.86 167.71 96.67 167.25 96.67 161.72 121.68 160.52 121.37 147.97 118.73 148.38 118.73 157.84 94.3 158.72 93.86 167.71"/><path class="h" d="M96.49,148.17l-2,.41.13-8.71,26.12-.06.16-.15s0-20.46.1-20.46l1.6.1V142l-26.72-.18Z"/><path class="g" d="M96.85,143.85H125v-22l9.51,1.6s.15,3.73.29,6.11,1,5.12,6.55,5.12,61.06.41,63.54.21,3.51-2.49,3.56-6.42,0-5.22,0-5.22H205.7a11.46,11.46,0,0,1,.33,6.62c-1,3.1,1.21,3.16-9.36,3s-54.31-.38-56.52-.67-2.59-.67-3.16-2.85-.46-8.18-.46-8.18l-13.35-1.93-.1,22.79-27,.31Z"/><path class="h" d="M166.62,148.05l3.12-.2s1.17,8.47-.93,15.42-6.62,12.8-13.66,13.94-13.07-1.32-13.57-2.23-2.5-5-2.5-5,2.88,5.85,13.75,4.21,12.67-11.75,13.39-16.14A54.12,54.12,0,0,0,166.62,148.05Z"/><path class="h" d="M202,147.39s2.56-.29,2.82,0,1,7.76-1,14.22a13.2,13.2,0,0,1-12.33,9.55c-5.12.32-9.21-3.26-9.21-3.26l-1.59-2.61s4.57,4.64,12.61,2.25,9.13-14.48,9.13-14.48Z"/><path class="g" d="M169.69,147.19h1.5s2,11.7-2.12,21.59S153.5,181.11,145,178.52,134.5,161.1,134.5,161.1,137,175,147.91,177.16s17.08-4,19.42-9.26,2.85-13.35,2.73-15.57S169.69,147.19,169.69,147.19Z"/><path class="g" d="M205.21,146.72h1.19s1.57,9.32-1.69,17.19-12.39,9.81-19.19,7.75-8.32-13.87-8.32-13.87,2,11.09,10.67,12.79,13.6-3.19,15.46-7.37,2.26-10.63,2.17-12.39S205.21,146.72,205.21,146.72Z"/><path class="f" d="M56.07,165.18s.58-2.2,1.28-2.35,17.15-.25,17.15-.25-1.13,16.7-1.07,17.22-.08.22-.08.22A29.79,29.79,0,0,0,71,176.13c-1.32-1.76-4.58-6.61-7.22-7.95A73.35,73.35,0,0,0,56.07,165.18Z"/><path class="i" d="M198.92,212.54s-11.43,24.93-43.51,23.1-51.7-11.5-57.46-29.43-.07-22.7,11.11-23.67,8.6,3.45,20.49,9,29.07,5.39,34.14,2.59,6.82,1,13.34.74,6-4.26,10.49-6.32,10.52-1.87,12.69-.73a3.44,3.44,0,0,1,2.15,2.81v-7l-.5-3.59a28.14,28.14,0,0,1-10.35,2.75c-5.82.34-9.08-1.14-9.08-1.14s-4.76-3.67-5.42-3.71-2.57,3.14-2.57,3.14,2-.93,3.36,0,3.7,3.37-.3,6.75-6.89,2.77-9.39,2.29-1.28-.92-5.86.24-9.23,2.9-18.47,2.28-14-4.19-17.14-7.76-5.75-13-5.59-14.32a32.34,32.34,0,0,0-.65-5.43l-25.9,2.07L94.14,162,74,162.12l-.85,17.52s-4.48-5.95-5.1-7.47-3.94-3.77-3.94-3.77,5.45,7.27,6.69,14.87,3.3,13.35,2.5,17.85-7.93,10.45-16.39,7.44A28.63,28.63,0,0,1,44,199s10.38,17.14,20.26,16.71,12.55-3.63,12.55-3.63l2.57-4,.56-1.63s8.67,15.79,23.36,22.14,27.11,8.13,43.66,9.37,37.73-8,38.12-8.3S198.92,212.54,198.92,212.54Z"/><path class="i" d="M137.09,120.78l0,.55s.16,4.74.42,6.87.61,2.66,2.69,3.11c-.2-2.44,7.23-5.1,11.09-6.45s5.86-8.17,5.86-8.17,6.11,2.59,21.52-1.09c7-1.67,9.89-4.06,10.92-6.16-.09-.21-.17-.41-.25-.62l-.11-.27-.13-.26-.25-.52c-.17-.34-.32-.69-.51-1a33.32,33.32,0,0,0-5.19-7.09l-.93-.94a56.79,56.79,0,0,1-9,5.48c-.52.24-1,.51-1.55.73l-1.55.68-1.56.61c-.26.11-.52.2-.78.29l-.78.28a57.44,57.44,0,0,1-6.2,1.78l-.76.17-.76.16-1.52.29c-1,.15-2,.34-3,.44l-2.89.34a11.07,11.07,0,0,1-1.13.11q-.77.51-1.56,1a33,33,0,0,1-3.72,1.84,39.24,39.24,0,0,1-4,1.39,58.82,58.82,0,0,1-8.67,1.66c-3,.36-6,.58-9.16.71-1.57.06-3.14.1-4.74.13l-2.39,0-2.4,0c-6.42.12-13.07.49-19.87,1.09s-13.41,1.42-19.78,2.33q-2.75.39-5.43.82c1,2.53,2.09,5.33,3.18,8.29.54,1.47,1,2.92,1.52,4.33.24.69.47,1.38.7,2.05l.7,1.95c.93,2.54,1.82,4.8,2.6,6.7l.25.61c.29.72.57,1.38.82,2-.1.41-.2.84-.29,1.27-.26,1.09-.53,2.25-.8,3.45,3.13-.74,6-1.4,8.38-1.87,3-.62,5.62-1.06,7.79-1.4v-9h26.68V118.77h1.7v-.33Z"/><path class="j" d="M179.36,181.06a4,4,0,0,1,1.32,3.53c-.17,2.42-3.16,6.36-5.62,7.41s4.48-1.49,5.91-3.38A10.52,10.52,0,0,0,182.7,184l.12-1.69Z"/><path class="j" d="M132.35,194.87a2.63,2.63,0,0,0-.55,3.22c1,1.79,11.75,7.67,25.33,8.54a65.85,65.85,0,0,0,24-2.85s-13.54,5.1-23.71,4.32-21.26-5.47-21.26-5.47l-6.59-3.89S131.37,194.84,132.35,194.87Z"/><path class="i" d="M137.33,207.47s1.81,7.23,12.22,9.63,14.94-3.56,14.94-3.56-3.3,1.4-12.29.31A29.35,29.35,0,0,1,137.33,207.47Z"/><polygon class="k" points="139.62 148.19 156.28 172.99 159.03 172.06 143.62 148.19 139.62 148.19"/><polygon class="k" points="145.32 148.36 160.02 171.44 161.05 170.63 146.56 148.28 145.32 148.36"/><path class="k" d="M196.93,164.76l-11.42-17.69h-4l13.09,19.47C195.37,165.88,196.27,165.37,196.93,164.76Z"/><path class="k" d="M198.79,163.1l-10.33-15.95-1.24.09,10.61,16.66A10.43,10.43,0,0,1,198.79,163.1Z"/><path d="M51.4,196.68c-.09.08-.53-.24-1.12-1a14.32,14.32,0,0,1-1.91-3.58,21.61,21.61,0,0,1-1.3-5.88,17,17,0,0,1,.08-3.62,9.69,9.69,0,0,1,1.3-3.83,5.75,5.75,0,0,1,3.37-2.6,7.13,7.13,0,0,1,1-.18,3.57,3.57,0,0,1,1-.08l1,0,.91.16a9.81,9.81,0,0,1,3.1,1.32A13.64,13.64,0,0,1,61,179.18a15.44,15.44,0,0,1,2.53,3.15c.49.81.67,1.32.56,1.39s-.47-.3-1.12-1a28.09,28.09,0,0,0-2.82-2.62A14.17,14.17,0,0,0,58,178.72a8.79,8.79,0,0,0-2.67-1,6.79,6.79,0,0,0-3,.14A4,4,0,0,0,50,179.73a8.51,8.51,0,0,0-1.08,3.13,17.29,17.29,0,0,0-.17,3.27,25.22,25.22,0,0,0,.85,5.57C50.42,194.85,51.6,196.52,51.4,196.68Z"/><path d="M62.69,181.66a8.71,8.71,0,0,0-1.32-.28,6.11,6.11,0,0,0-2.48.17,4.57,4.57,0,0,0-1.22.58,4.06,4.06,0,0,0-.91.89,4.52,4.52,0,0,0-.81,1.89c-.2,1.12,0,1.8.12,1.81s.33-.65.7-1.57a3.82,3.82,0,0,1,2.47-2.44,8.9,8.9,0,0,1,3.81,0h0A8.84,8.84,0,0,1,62.69,181.66Z"/></g></svg>